<?xml version="1.0" encoding="UTF-8"?>
<svg id="Calque_1" data-name="Calque 1" xmlns="http://www.w3.org/2000/svg" viewBox="0 0 2455.65 606.75">
  <defs>
    <style>
      .cls-1 {
        fill: #e4d309;
      }

      .cls-2 {
        fill: #0f1021;
      }
    </style>
  </defs>
  <g>
    <path class="cls-2" d="m228.59,269.69c.53-1,1.05-2,1.58-3,4.02-2.4,4.73-6.45,5.28-10.58l.06-.06c4.08-2.28,6.61-5.64,7.24-10.33.54-2.64,3.19-4.38,3.13-7.28,6.41-2.68,7.01-9.17,9.47-14.44.56-.99,1.11-1.99,1.67-2.98,2.46-1.76,4.39-3.82,4.12-7.15.31-.43.6-.87.88-1.31,4.26-3.15,5.49-8.04,7.25-12.62.95-1.77,1.9-3.54,2.85-5.3,2.67-.56,3.17-2.46,2.97-4.79.34-.41.66-.83.97-1.25,4.46-3.06,4.94-8.36,7.14-12.69,1.01-1.73,2.02-3.46,3.02-5.19,3.38-3.65,7.28-7.01,7.26-12.62.36-.4.68-.82.98-1.26,2.63-1.5,2.45-4.27,3.06-6.7.93-1.12,1.86-2.25,2.79-3.37,3.83-3.42,6.6-7.44,7.12-12.71.33-.4.65-.83.93-1.26,2.42-1.78,5.19-3.37,4.04-7.17.61-.97,1.22-1.93,1.84-2.9,3.84-1.69,3.41-5.82,5-8.79.44-.36.7-.81.79-1.37,3.45-1.81,4.77-4.94,5.32-8.56.8-1.89,1.59-3.78,2.39-5.67,2.73-.41,3.08-2.78,3.89-4.75,1.09-2.65,2.83-4.03,5.82-3.05-.06,61.91-.13,123.82-.16,185.73,0,1.31.35,2.62.54,3.94-.02,3.19,2.26,3.61,4.61,3.63,7.79.06,15.57.04,23.36-.05,2-.02,3.88-.57,4.2-3.07,0,0,.1-.08.1-.08,5.09-2.32,2.81-6.92,2.82-10.42.15-69.94.11-139.89.1-209.83,0-2.66-.06-5.32-.19-7.98-.08-1.47-.98-2.37-2.45-2.65-17.72-1.17-35.44-1.49-53.15.14-3.77,1.63-4.85,4.91-5.29,8.59-.28.44-.57.88-.88,1.3-2.35.59-3.68,1.93-3.35,4.51-.08.57-.22,1.13-.41,1.67-4,3.32-6.29,7.59-7.12,12.69-2.14,3.21-4.28,6.42-6.43,9.62-3.19,4.44-6.68,8.71-7.63,14.34-2.11,3.22-4.22,6.44-6.33,9.66-1.04,1.26-2.25,2.45-1.68,4.33-2.52,4.33-5.04,8.66-7.55,12.99-4.14,2.53-5.56,6.62-6.37,11.07-1.06,1.71-2.11,3.42-3.17,5.12-2.24.86-2.73,2.76-2.88,4.86-.53.99-1.05,1.97-1.58,2.96-4.05,2.59-5.49,6.67-6.32,11.1-.24.48-.55.89-.95,1.25-3.95,1.68-4.43,5.25-4.85,8.86-.62.93-1.24,1.86-1.85,2.8-3.76,2.64-6.1,6.18-6.84,10.74-.92,1.81-1.85,3.61-2.77,5.42-5.75,6.8-10.28,14.29-12.84,22.88-.35.39-.68.8-.99,1.22-5.83,6.76-11.31,13.71-12.84,22.88-1.21,1.15-2.93,1.96-2.8,4.04-1.37-.05-2.74-.1-4.11-.16,0,0-.07-.09-.07-.09-1.64-4.63-3.6-9.08-7-12.74l-2.13-2.81c-1.37-5.75-3.68-10.96-8.35-14.86-.15-.53-.38-1.02-.68-1.47-1.62-4.63-3.04-9.4-7.78-12.02l-.11-.11c-.41-4.17-.77-8.37-5.12-10.64-.26-.46-.55-.89-.89-1.29-.48-2.52.42-5.86-3.71-6.21h-.02c-1.38-2.04.15-5.6-3.4-6.5-1.01-1.73-2.02-3.47-3.03-5.2-1.71-4.59-2.58-9.71-7.61-12.23l-.03-.03c-1.11-6.67-3.28-12.72-9.61-16.32-.36-1.08-.73-2.16-1.09-3.25.22-2.19.12-4.22-2.44-5.08-.33-.41-.67-.82-1.02-1.22-.95-6.01-4.47-10.6-8.35-14.98-.65-.95-1.29-1.89-1.94-2.84-1.71-4.59-2.04-10.01-7.4-12.43-2.12-3.91-4.24-7.81-6.35-11.72-.39-2.57.44-5.88-3.71-6.21h-.02c-1.12-2.18.05-5.53-3.34-6.54-1-1.74-2.01-3.47-3.01-5.21-.83-5.09-3.25-9.31-7.06-12.75-.31-.43-.63-.84-.97-1.24.18-2.24-.3-4.11-2.69-4.95-1.99-4.36-5.64-4.89-9.94-4.82-11.97.18-23.95.03-35.93.07-10.47.04-10.52.08-10.53,10.34-.02,42.58-.01,85.17-.01,127.75,0,27.94-.01,55.89,0,83.83,0,10.9.37,11.26,11.12,11.25,3.99,0,7.98-.05,11.97-.09,10.03-.09,10.19-.17,10.2-9.87.03-15.3-.05-30.6-.09-45.91,1.42.05,2.84.1,4.26.15.29.48.48.99.58,1.54-.97,2.61-.59,4.51,2.58,4.96,3.81,6.34,7.61,12.68,11.42,19.02-.19,2.21.76,3.81,2.61,4.94.25,5.7,6.8,7.59,7.77,12.85,2.7,14.92,1.7,29.99,1.78,45.02-.98.19-1.95.53-2.93.54-29.32.02-58.63.06-87.94-.02-7.69-.02-7.91-.53-7.14-7.78.38-3.62.5-7.29.5-10.93.02-89.62.02-179.23.01-268.85,0-.67-.01-1.33,0-2q.08-9.85,9.96-9.87c30.98,0,61.96.02,92.94.03.48,1.83,1.8,2.57,3.56,2.71l.13.12c1.87,4.48,2.75,9.61,7.91,11.9,1.03,3.43,4.34,5.82,4.36,9.7.95,3.39,2.4,6.45,5.58,8.34,2.18,3.84,3.32,8.29,6.7,11.42-.48,1.81.34,3.11,1.66,4.21.69,1.34,1.39,2.67,2.08,4.01.53,2.53.45,5.44,3.89,6.1.52.31.93.72,1.22,1.25.79,6.11,4.19,10.8,8.27,15.11,2.43,4.35,4.86,8.7,7.29,13.05.26,3.71,1.77,6.72,4.95,8.78.79,5.39,5.25,8.6,7.69,13.02.28,5.24,2.63,9.43,6.5,12.86,5.82,9.72,11.64,19.43,17.46,29.15-.87,2.56-.15,4.24,2.64,4.78,1.42,2.58,2.85,5.16,4.28,7.75-.17,1.78.34,3.41,2.27,3.53,2.4.15,3.22-1.55,3.09-3.76.32-.41.63-.83.91-1.27,3.79-2.53,4.12-6.76,5.21-10.61l.12-.06c3.13.03,3.75-1.68,3.02-4.34.64-.94,1.27-1.88,1.91-2.83,3.8-1.1,2.05-4.5,2.83-6.84,3.77-5.78,7.82-11.4,10.23-17.95,2.51-.47,4.01-1.61,2.92-4.45.37-.49.75-.98,1.14-1.46,4.21-1.25,3.05-5.13,3.94-8.01.4-.45.57-.98.53-1.58,2.31-.6,3.29-2.21,3.43-4.48.39-.49.52-1.05.4-1.66,7.21-5.86,10.15-14.26,13.37-22.49.99-1.74,1.98-3.49,2.97-5.23,2.74-.62,3.06-2.58,2.72-4.91.33-.44.66-.87,1-1.3,3.54-.9,3.25-3.81,3.42-6.49.36-.38.68-.8.94-1.26,2.41-.87,2.96-2.69,2.55-5,.35-1.1.71-2.2,1.06-3.29,1.87-.9,3.2-2.25,3.53-4.39.41-.48.56-1.03.42-1.65,2.61-2.33,5.53-4.48,5.14-8.6.68-.92,1.35-1.84,2.03-2.76,1.74-2.18,4.53-3.8,3.88-7.25.5-.99.99-1.98,1.49-2.97,2.56-.67,3.12-2.53,2.89-4.86.32-.41.63-.84.91-1.27,2.75-.75,2.86-2.73,2.36-5.01,1.35-1.66,2.67-3.32,3.05-5.52,1.9-.7,4-1.18,4.24-3.76,15.62-1.14,31.26-.34,46.89-.49,16.65-.15,33.3.1,49.95-.15,5.08-.08,7.58,1.48,7.2,6.75-.12,1.66-.04,3.33-.04,4.99,0,92.58,0,185.16,0,277.74,0,1,.04,2,.01,3-.2,6.93-.2,7.05-7.49,7.07-22.98.06-45.96.01-68.93.01-5.66,0-11.33.18-16.98-.02-6.31-.22-6.03-.48-5.87-6.84.33-12.98.25-25.97.27-38.95.03-20.3,0-40.61,0-61.52-8.56,1.18-8.09,9.19-11.33,14.11-4.46,3.01-6.44,7.47-7.34,12.56-.56.98-1.12,1.96-1.67,2.94-4.91,3.8-7.52,8.91-8.48,14.96-2.08,3.25-4.15,6.5-6.23,9.75-1.52,1.97-4.08,3.49-2.94,6.64-.53.99-1.06,1.99-1.59,2.98-2.51.67-3.11,2.51-2.95,4.81-2.14,3.19-4.27,6.37-6.41,9.56-1.07,1.29-2.05,2.61-1.58,4.45-.52.98-1.03,1.96-1.55,2.94-2.4,1.69-4.82,3.36-4.93,6.73q-6.83,14.9-23.77,14.89c-19.45-.04-38.91-.15-58.36-.23-.71-1.78-2.81-1.63-3.94-2.81-2.79-5.23-5.59-10.45-8.38-15.68-.98-5.01-3.6-9.1-7.02-12.77-.63-.95-1.26-1.9-1.88-2.86,1.04-2.8.35-4.47-2.91-4.48l-.05-.02c-.5-4.21-2.2-7.73-5.83-10.14.05-.62-.09-1.2-.41-1.73.34-4.19-2.23-6.5-5.42-8.42-.22-3.83-3.34-6.2-4.72-9.45-.73-5.16-2.73-9.61-7.22-12.62-.52-1.05-1.03-2.1-1.55-3.14.02-.93.41-2.08.02-2.77-4.84-8.48-9.43-17.13-14.89-25.2-2.47-3.66-2.48-9.05-7.41-11.02-.98-1.75-1.97-3.49-2.95-5.24-.3-2.1-1.9-3.25-3.33-4.52-.23-3.79-3.45-6.18-4.5-9.59-1.21-5.93-4.41-10.72-8.57-14.95-5.74-8.04-8.08-16.75-7.51-26.82.79-14.15.3-28.38.36-42.57,1.14.18,2.27.36,3.41.54.22.49.49.96.79,1.4-.34,2.23.79,3.67,2.55,4.77.46,1.1.91,2.2,1.37,3.3.67,3.58,1.62,6.96,5.57,8.35.22.48.46.95.72,1.41-.52,1.88.66,3.05,1.78,4.24.75,3.05,4.48,4.14,4.89,7.42.15,4.87,3.03,8.11,6.58,10.94.2.49.44.97.72,1.42-.54,1.89.73,3.01,1.79,4.21,2.1,3.24,4.19,6.48,6.29,9.73-.43,3.12,1.91,4.48,3.86,6.09.25.55.55,1.06.9,1.55-1.02,3.72,1.55,5.44,4.04,7.21,1.8,3.01,3.6,6.02,5.4,9.03.56,5.21,3.16,9.33,6.9,12.84,1.05,4.5,6.03,6.77,6.58,11.55,1.27,4.89,3.8,9,7.58,12.35.2.53.34,1.07.45,1.63-.32,2.66,1.26,3.8,3.52,4.4,1.01,1.73,2.02,3.47,3.03,5.2,0,3.82,1.19,7.01,4.79,8.9.32.49.5,1.02.55,1.6,1.22,4.92,3.59,9.12,7.63,12.3.24.47.55.9.92,1.27.38,3.64.86,7.22,4.89,8.84.31.48.52.99.61,1.56.87,4.43,2.83,8.17,6.74,10.67.53,1.02,1.05,2.03,1.58,3.05.11,2.13.78,3.91,2.93,4.79l3.14,5.16c.83,6.13,4.67,8.08,10.43,7.91,6.62-.2,13.24-.05,19.86-.05,12.13,0,14.21-1.61,18.22-14.18Z"/>
    <path class="cls-2" d="m2297.49,148.68c-3.26-5.36-7.6-9.77-12.18-13.98-1.51-3.64-3-7.29-7.23-8.65-5.32-7.94-12.32-14.4-18.71-21.4-.31-3.41-2.17-5.53-5.4-6.52-.88-1.16-1.76-2.31-2.64-3.47.11-2.52-1.07-3.98-3.58-4.32-4.21-4.52-8.42-9.03-12.63-13.55.12-3.77-2.37-5.33-5.44-6.38-.12-.31-.19-.66-.38-.92-15.14-19.93-16.32-20.52-41.08-20.52-7.66,0-15.31.11-22.96-.02-4.23-.07-6.17,1.63-5.77,5.93.15,1.65.04,3.33.04,4.99,0,70.23-.01,140.46.04,210.69,0,3.55-1.08,7.38,1.65,10.55,5.74,3.6,21.38,3.99,29.34.72,4.01-1.65,3.53-5.16,3.52-8.47-.05-28.31-.1-56.61-.14-84.92,1.56-.68,3.13-1.35,4.69-2.03,1.52,2.77,2.24,6.13,5.59,7.55,1.85,6.04,5.31,10.54,11.69,12.25.97,1.16,1.95,2.32,2.92,3.48-.54,5.12,2.03,7.81,6.83,8.77.15,30.3.19,60.59.52,90.89.07,6.08-3.37,6.05-7.73,6.03-25.31-.09-50.62-.05-75.94-.05-2.66,0-5.35-.18-7.99.05-4.96.43-7.73-1.18-7.1-6.64.15-1.32.03-2.66.03-3.99,0-92.59,0-185.19,0-277.78,0-.67-.02-1.33,0-2,.14-8.92.22-9.06,8.83-9.08,17.32-.04,34.64,0,51.96,0,8.33,0,16.72.68,24.96-.18,8.8-.92,15.33,2.05,20.84,8.42,1.27,3.9,3.23,7.19,7.46,8.48.32.42.65.83.99,1.23-.19,3.6,1.86,5.58,4.93,6.83,4.24,4.47,8.47,8.93,12.71,13.4-.14,2.55,1.41,3.71,3.59,4.36,6.18,8.45,13.61,15.8,20.67,23.47.22,3.42,2.15,5.48,5.25,6.6,6.89,7.82,13.78,15.64,20.68,23.45-.47,2.6,1.07,3.83,3.2,4.64l12.51,13.57c.52,3.19,2.55,5.17,5.26,6.6,5.65,6.41,11.3,12.83,16.95,19.24.11,3.02,2.14,4.12,4.67,3.94,2.79-.2,2.38-2.69,2.48-4.6.08-1.66,0-3.33,0-5,0-41.32-.02-82.65,0-123.97,0-3.32.33-6.64.51-9.96,12.52-1.17,25.07-.42,37.6-.47,19.47-.08,38.94.18,58.41.29.19,2.98.55,5.96.55,8.94,0,96.54-.03,193.08-.05,289.62-13.28,1.3-26.6.35-39.9.51-15.99.19-32.02-.62-47.97.3-9.29.53-15.77-3.24-20.06-10.07-5.4-8.58-12.97-15.06-19.17-22.8-.82-4.18-3.31-6.99-7.13-8.71-6.25-7.12-12.5-14.25-18.76-21.37.45-2.84-1.78-3.41-3.64-4.29-2.48-4.73-6.72-7.95-10.15-11.86.09-2.88-2.17-3.16-4.15-3.76-2.04-2.69-4.07-5.37-6.11-8.06.56-2.95-1.92-3.29-3.66-4.26-2.63-4.62-6.93-7.79-10.26-11.79-.1-3.82-2.9-5.02-5.87-6.06-4.9-8.27-11.95-14.75-18.24-21.86-.32-3.42-2.31-5.42-5.44-6.47-5.49-7.81-12.48-14.3-18.77-21.41-.11-3.42-1.92-5.57-5.05-6.74-3.55-3.81-7.1-7.63-10.64-11.44-.97-1.61-.66-4.06-3.08-4.72-.14-15.15-.27-30.31-.41-45.46,1.5-.41,3-.82,4.5-1.22.72.85,1.45,1.69,2.17,2.54-.26,3.62,1.7,5.65,4.86,6.83,2.86,3.17,5.72,6.33,8.57,9.5.51,3.37,2.49,5.38,5.73,6.24,1.52,1.85,3.04,3.71,4.56,5.56-.14,2.37.42,4.27,3.18,4.67,4.66,5.35,10.24,9.88,14.09,15.93.47,3.36,2.76,5.08,5.66,6.23,5.64,6.42,11.29,12.84,16.93,19.26.13,3.52,2.15,5.51,5.31,6.58,5.19,8.05,12.83,13.96,18.74,21.39-.25,3.72,2.2,5.4,5.11,6.72,3.5,3.86,7,7.72,10.49,11.58.09,2.36,1.43,3.7,3.6,4.35,6.22,7.15,12.44,14.29,18.67,21.44.33,3.37,2.16,5.52,5.33,6.59,5.64,6.42,11.28,12.84,16.92,19.26.82,4.13,3.19,7.03,6.97,8.81,4.49,4.93,8.27,10.56,13.89,14.41.71,2.33,2.61,2.73,4.64,2.74,13.42.02,26.84.02,40.26-.01,2.12,0,3.88-.63,3.95-3.23,3.15-2.07,2.2-5.32,2.2-8.19.04-71.63.04-143.26.02-214.89,0-8.31-.1-8.38-8.29-8.53-5.99-.11-12,.19-17.99-.05-4.95-.2-7.35,1.24-7,6.76.44,6.97.13,13.99.14,20.98.04,55.97.08,111.94.1,167.91,0,.92-.32,1.84-.66,3.67-6.01-2.62-9.26-7.47-12.9-11.86-1.42-4.32-3.62-8.02-7.9-10.1-4.18-4.53-8.36-9.06-12.54-13.59-.81-4.3-3.47-6.96-7.49-8.39-5.3-9.18-14.05-15.4-20.39-23.69-.3-3.32-2.19-5.41-5.14-6.7-5.57-7.75-13.76-13.16-18.99-21.22.32-2.81-1.71-3.44-3.75-4.05Z"/>
    <path class="cls-2" d="m1388.06,272.67c.41-.33.85-.62,1.32-.86,1.97-.32,4.22-.17,4.81-2.83l.24-.19c13.35-9.91,18.25-24.1,17.64-39.69-.76-19.32-11.96-32.97-27.87-43.03-1.49-.94-3.03-1.28-4.44.21l-.96.05-.96-.1c-.8-1.83-1.39-4.08-4.08-1.96-3.1-2.58-6.83-2.05-10.43-2.05-15.63-.02-31.27.04-46.9-.02-40.25-.16-80.49-.2-120.74-.64-14.9-.16-30.21-2.7-41.81-11.8-13.1-10.27-25.84-22.03-31.67-38.78,1.15-2.33,1.04-4.22-1.8-5.16-2.25-4.72-2.23-10-3.63-14.93.51-10.43,1.02-20.86,1.54-31.29,4.83-22.5,17.7-39.19,37.06-51.16,1.37-.84,2.8-1.58,4.21-2.36,3.92,1.1,5.86-1.84,8.17-4.02,1.25-.03,2.51-.05,3.76-.08,4.34.69,6.8-2.97,10.22-4.42,11.83-2.29,23.79-1.68,35.72-1.68,43.2-.02,86.4.03,129.59-.03,15.6-.02,31.21-.25,46.71,1.98,4.11,3.37,8.3,6.58,14.02,6.46.53.3,1.09.43,1.69.39,2.09,4.72,5.45,7.37,10.86,6.71,2.74,2.79,5.47,5.59,8.21,8.38-.39,3-.37,5.73,3.76,5.77,5.82,7.98,8.57,17.07,9.68,26.75-1.78,3.26-.35,5.75,1.94,8.02.02,9.66-.18,19.34.15,28.99.17,4.93-1.81,6.67-6.41,6.34-1.66-.12-3.33-.02-5-.02-74.65,0-149.3,0-223.95-.03-4.32,0-8.63-.42-12.95-.64-.76-1.96-2.29-2.54-4.25-2.33-1.11-.94-2.22-1.87-3.34-2.81-2.49-4.4-2.03-9.55-3.65-14.18.67-2.62,1.07-5.36,3.19-7.35,2.45.1,3.7-1.34,4.42-3.45,1.77-.3,3.54-.59,5.32-.89,67.58.02,135.17.03,202.75.04,2.33,0,4.69.07,6.97-.28,1.8-.28,2.8-1.61,2.3-3.62.02-13.31-7.77-23.95-19.27-26.35.48-3.17-1.02-4.27-4-3.82-3.22-1.2-6.57-.91-9.89-.91-59.65-.01-119.3-.01-178.95.02-2.98,0-5.97.36-8.95.56-2.6-1.23-4.14-.19-4.99,2.33-4.29.49-7.22,3.96-11.2,5.14-2.86-.63-4.49.26-4.27,3.45-1.37,1.31-2.74,2.61-4.11,3.92-6.72,1.35-8.97,6.18-9.55,12.3-5.8,12.08-5.32,24.7-3.16,37.46-.9.06-1.99.32-1.77,1.36.44,2.13,2.38,2.52,4.16,2.99.26.63.21,1.24-.16,1.81-.54,3.97,2.08,8.11,7.06,11.13,2.93,5.08,7.01,8.67,12.88,9.92,1.37,4.97,3.06,5.82,10.44,5.3,1.15.16,2.3.32,3.45.48.41,1.76,1.19,3.18,3.3,2.77,1.05-.2,1.46-1.12,1.2-2.22,48.5.02,97,.35,145.49-.13,14.92-.15,29.52,1.81,44.24,3.16,1.08,2.15,2.62,3.17,5.04,2.09,3.42,1.82,7.55,2.06,10.58,4.74,2.08,1.95,3.84,4.51,7.3,3.76,1.31,1.42,2.39,3.68,3.97,4.11,7.16,1.97,10.92,7.9,15.73,12.63,1.52,6.44,6.05,11.08,9.69,16.25,4.34,8.85,7.8,17.96,8.21,27.97-.03,7.35-.07,14.7-.1,22.04-.5,3.33-1.01,6.65-1.51,9.98-4.25,5.45-6.4,11.82-8.06,18.41-.37.38-.68.8-.93,1.27-3.33,1.92-4.88,4.92-5.2,8.65-4.72,4.65-9.45,9.3-14.17,13.95-2.37.02-4.07.92-4.46,3.48-3.05,1.76-6.11,3.51-9.16,5.27-5.39,1.23-11,1.94-15.05,6.35-1.85.14-3.7.27-5.55.41-4.6-1.5-8.31.6-11.97,2.93-25.21.1-50.41.26-75.62.3-33.83.05-67.67.04-101.5-.02-4.97,0-9.93-.39-14.9-.59-6.96-4.12-14.83-5.57-22.46-7.74l-2.8-1.9c-.54-2.66-2.22-3.39-4.7-2.78-3.25-2.77-6.49-5.53-9.74-8.3-.15-2.35-1.4-3.71-3.71-4.11-2.73-4.27-5.45-8.53-8.18-12.8,1.6-4.3-1.59-6.5-3.97-9.05.04-1.24.08-2.48.13-3.72.93-1.12.99-2.43.67-3.75-2.8-11.47-1.79-23.16-1.88-34.77-.08-9.9.05-9.91,9.89-10,1,0,2,0,2.99,0,71.2,0,142.39.04,213.59-.04,10.56-.01,21.21-1.02,29.92,6.82,4.47,12.49,3.63,15.28-7.03,23.4-5.25.27-10.49.76-15.74.76-62.8.05-125.6.03-188.4.03-2.33,0-4.66-.13-6.98.02-6.88.43-7.57,1.74-5.23,9.55.36,1.76.72,3.51,1.08,5.27-.11,3.78-.36,7.66,5.12,7.74,0,0,.37.46.37.46.46,8.45,7.73,8.26,13.18,10.38l5.77.27c.81,4.11,3.87,3.67,6.96,3.66,56.98-.11,113.97-.24,170.95-.13,7.8.02,15.25-1.8,22.56-3.61,4.28-1.06,10.02-2.03,11.95-7.69Z"/>
    <path class="cls-2" d="m961.2,187.12c-1.61-.58-3.23-1.17-4.84-1.75-2.13-3.1-4.55-5.4-8.61-3.08-56.15-1.22-112.31-.41-168.46-.65-4.32-.02-8.63-.15-12.95-.23-6.86-4.68-14.79-4.59-22.6-5.04-5.6-1.06-9.27-5.58-14.19-7.86-1.4-1.23-1.16-4.32-4.19-3.68-6.44-5.16-12.82-10.39-16.84-17.84-2.84-6.67-4.36-14.07-10.61-18.82.15-3.46-1.71-6.35-2.7-9.5-.31-.88-.63-1.76-.94-2.65.78-11.67-1.16-23.39.59-35.05,5.08-6.13,6.38-13.73,8.27-21.11,2.78-8.07,10.08-12.8,14.5-19.66.7-.63,1.41-1.26,2.11-1.89h0c8-4.42,15.26-9.87,22.25-15.72.39-.41.87-.64,1.43-.71,6.09,1.03,11.26-1.4,16.28-4.36,10.17-2.13,20.48-1.65,30.76-1.65,41.86-.01,83.72-.02,125.59,0,17.92.01,35.85-.63,53.7,1.67,4.54,4.47,10.79,4.5,16.36,6.26,1.51,1.43,3.09,2.74,5.29,2.92,1.47,2.7,3.33,4.88,6.67,5.17,2.68,2.7,5.37,5.41,8.05,8.11,2.99,5.98,5.64,12.18,10.61,16.93.28,1.79.56,3.58.84,5.38-1.84,3.57.71,5.68,2.65,8,.14,12.98.12,25.97.49,38.94.13,4.79-1.65,6.77-6.33,6.41-1.32-.1-2.66-.03-3.99-.03-75.57,0-151.14,0-226.71-.03-3.31,0-6.62-.41-9.93-.62-8.34-5.53-13.24-12.66-10.79-23.2,1.54-1.89,3.07-3.77,4.61-5.66.77-.55,1.53-1.1,2.3-1.66,1.23-.14,2.46-.27,3.69-.41,66.98-.02,133.95-.04,200.93-.06,2.67,0,5.33.06,8-.04s5.6-.04,6.58-3.29c1.07-3.56.36-6.58-3.41-8.23.05-2.84-.36-5.54-2.52-7.66.41-2.46-.21-4.28-2.94-4.81-1.4-1.31-2.45-3.06-4.47-3.6-2.52-5.4-7.42-6.38-12.62-6.8-2.65-.19-5.3-.53-7.95-.54-60.61-.03-121.21-.02-181.82,0-2.32,0-4.65.25-6.97.38-2.71-1.35-4.69-1.2-5,2.42-4.55-.11-7.62,3.02-11.16,5.11-2.48-.32-3.96.84-4.65,3.15-2.71,2.65-5.42,5.29-8.13,7.94-2.99,1.36-5.36,3.1-4.29,6.96l-1.76,3c-4.25,2.44-4.31,7.26-5.13,10.99-2.65,12.07-1.89,23.85,6.68,33.89.45,2.12,1.96,3.55,3.29,5.1,1.48,6.32,5.92,9.89,11.51,12.39,2.86.96,4.34,4.7,8.03,3.98,1.96,1.54,3.52,4.14,6.67,2.5,5.96.31,11.93.88,17.89.89,54.48.11,108.96.12,163.45.16,2.57,3.82,5.96,4.46,10,2.57,1.87.12,3.75.25,5.62.37,4.13,4.1,9.07,6.4,14.92,6.6,2.3,1.22,4.61,2.45,6.91,3.67,1.7,2.49,3.69,4.53,6.98,4.63.38.36.78.7,1.2,1.02,2.45,4.25,5.9,7.45,10.26,9.67,2.25,4.27,7.39,6.58,8.09,11.91,2.97,5.56,3.93,12.19,8.95,16.65l1.08,9.33c-.31,2.31-1.21,4.8,1.9,6.03,1.26,8.68,1.45,17.34-.17,26-2.55.58-1.9,2.42-1.63,4.11-.7,3.27-.54,6.74-2.25,9.78-6.44,7.89-6.78,8.54-7.6,14.33,0,.6-.1,1.19-.3,1.77-6.43,4.3-11.27,10.1-15.49,16.47-2.52.32-2.03,3.43-3.97,4.29-4.38-.74-6.49,2.19-8.53,5.25-2.43,1.8-4.86,3.59-7.29,5.39-4.55-1.03-8.35.07-11.19,3.91-3.65.47-7.45.13-10.81,2.06-1.92-1.23-3.47-.78-4.7,1.06-2.65.19-5.29.54-7.94.54-60.69-.03-121.39-.09-182.08-.15-4.38-2.3-8.82-4.38-13.99-3.06-1.13-.22-2.26-.44-3.39-.66-1.91-3.83-5.37-4.4-9.13-4.35-6.18-2.41-11.25-6.87-16.25-10.75-5.04-3.91-7.85-10.73-11.51-16.36-1.6-2.45-2.89-5.1-4.32-7.66,3.22-2.18,1.24-3.28-.89-4.36-2.25-5.05-1.8-10.46-1.85-15.74-.11-12.25-1.37-24.53.74-36.73,5.65.1,11.31.3,16.96.3,72.53.02,145.06.06,217.59-.05,8.36-.01,15.74,1.24,20.33,9.21.7,1.22,2.12,1.51,3.49,1.6.6,3.2.61,6.4.05,9.61-5.17.94-6.21,5.63-8.42,9.26-1.09.35-2.17.7-3.26,1.06-5.3.1-10.61.28-15.91.28-62.39.02-124.79.01-187.18.02-2.99,0-5.98,0-8.95.15-2.18.12-3.78,1.11-3.85,3.61-1.18,3,1.31,5.15,1.8,7.76.99,3.37-.89,8.08,4.4,9.44,1.41,1.35,3.11,2.5,4.17,4.08,4.6,6.87,11.41,8.74,19.07,8.91,2.55,4.47,6.93,3.1,10.68,3.12,24.87.11,49.74.06,74.62.06,30.51,0,61.02.05,91.53-.05,4.11-.01,8.75,1.2,11.77-3.16,8.99.25,15.97-4.86,23.4-8.79,2.68.34,3.91-1.11,4.36-3.53.67-.67,1.33-1.33,2-2,3.22-.94,5.28-2.88,5.49-6.4.32-.41.62-.84.91-1.27,3.57-1.01,2.95-4.02,3.16-6.64,2-2.08,2.49-4.72,2.75-7.44,2.39-.7,3.64-1.86,1.72-4.29,1.44-5.31,1.38-10.64.26-15.99,1.49-4.98-1.15-8.69-3.83-12.39-.26-.46-.54-.89-.86-1.31.03-3.92-1.19-7.1-5.09-8.72-3.27-4.81-8.11-7.99-12.34-11.79-.64-2.49-2.5-3.04-4.74-2.98Z"/>
    <path class="cls-2" d="m1742.4,109.64c.75-1.58,1.5-3.16,2.25-4.73,2.52-1.14,2.57-3.06,1.67-5.28.92-1.53,1.84-3.07,2.76-4.6,1.67-2.23,4.76-3.78,3.52-7.39.68-2.6,3.53-4.21,3.29-7.23,1.25-1.4,4.35-1.33,3.5-4.4,3.54-7.58,9.62-13.14,15.16-19.13,3.73-1.62,6.45-4.16,7.56-8.19l.02-.11c4.05-.95,6.63-3.58,8.3-7.26,13.81-12.01,28.55-22.47,46.33-27.91,1.54-.47,2.9-1.56,4.34-2.37,4.64,1.36,8.2-.48,11.26-3.81,2.47-.22,4.95-.44,7.42-.66,3.95,1.46,7.02-.41,9.99-2.65,5.34-.35,10.68-.7,16.02-1.05,7.32,1.46,14.64,1.67,21.97.09,4.67.29,9.34.57,14.01.86,2.98,2.24,6.04,4.14,10.01,2.62,2.48.25,4.95.49,7.43.74,1.19,2.19,2.94,2.79,5.24,1.87,5.01,1.86,10.03,3.73,15.04,5.59.64,2.19,1.57,4.01,4.36,3.58.64.12,1.28.14,1.92.06,1.3.93,2.51,2.14,4.35,1.57,1.04.41,2.07.83,3.11,1.24,1,1.95,2.44,3.17,4.78,2.93,13.11,9.68,26.72,18.69,37.87,30.85,4.45,4.85,7.94,10.29,11.89,15.45.72,1.84.96,4.09,3.6,4.35,1.8,3.02,3.61,6.04,5.41,9.06-.75,2.48-.16,4.27,2.56,4.95,1.28,2.31,2.57,4.63,3.85,6.94-.76,2.26-.75,4.23,1.98,5.16.7,1.63,1.4,3.26,2.1,4.89-1.19,2.48-.75,4.26,2.16,4.95,1.47,3.59,1.14,7.75,3.52,11.05-1.15,1.91-.55,3.4,1.09,4.65.34,2.43.67,4.86,1.01,7.3-.76,7.22,1.74,14.13,1.71,21.37-.05,14.03-.42,28.04-1.02,42.05-.54,2.43-1.08,4.85-1.62,7.28-1.51,1.32-1.98,2.86-.98,4.7l-7.79,20.97c-2.79.84-3.13,2.64-1.99,5.03-.96,1.53-1.92,3.06-2.88,4.59-1.76,1.26-2.43,2.99-2.21,5.11-13.84,21.2-29.07,41.12-50.85,54.96-3.77,2.4-7.74,4.49-11.62,6.72-5.49,1.08-10.25,3.65-14.62,7.06-1.76,1.03-3.53,2.06-5.29,3.08-1.83-.59-3.59-.98-4.15,1.64-1.15.36-2.3.71-3.45,1.07-2.64-.94-4.75-.92-4.87,2.7-4.52.55-9.17.54-13.27,2.96-18.8.29-37.55,3.31-56.4,1.24-3.79-.26-7.59-.53-11.38-.79-.86-2.74-2.73-3.11-5.15-2.2-2.49-.29-4.98-.59-7.47-.88-1.05-1.73-2.63-1.85-4.38-1.43-1.62-1.37-3.57-1.9-5.61-2.17-.82-1.75-2.23-2.41-4.1-2.23-3.3-1.29-6.61-2.59-9.91-3.88-.98-1.86-2.56-2.12-4.41-1.63-7.44-3.78-14.43-8.26-21.04-13.35-.7-2.29-1.82-3.97-4.64-3.15-9.82-7.52-18.77-15.91-25.92-26.1-.14-3.52-2.1-5.54-5.35-6.49-.32-.43-.71-.8-1.14-1.11,0-2.37-1.35-3.7-3.43-4.47-.8-1.23-1.6-2.45-2.41-3.68-.91-2.28.27-5.64-3.36-6.51-.93-1.79-1.85-3.58-2.78-5.37-.49-5.66-2.9-10.53-6.14-15.07-1.44-2-2.57-4.13-2.89-6.61,1.3-2.44.79-4.2-1.93-5.12-2.33-3.99-.76-9.1-3.72-12.91,1.08-1.86.5-3.36-1.02-4.65-.25-3.82-.5-7.64-.76-11.46,1.04-1.82,1.08-3.42-.99-4.56-1.86-11.12-1.08-22.31-.75-33.48,1.31-.36,1.57-1.13.89-2.27,2.06-3.18,1.14-6.8,1.48-10.23,1.51-2.46,4.47-4.59,1.82-8,2.45-2.85.77-6.82,2.66-9.82,3.56-1.31,3.75-3.81,2.42-6.84Zm81.54-53.15c-2.49-.28-3.85,1.06-4.59,3.26-.49.21-.94.48-1.36.79-2.45-.1-3.89,1.11-4.49,3.44l-18.13,17.99c-4.67,1.96-6.05,6.23-7.37,10.53-1.2,1.7-2.41,3.4-3.61,5.11-4.62,4.72-8.05,10.03-8.43,16.87-.61,1.04-1.21,2.08-1.82,3.12-1.87,1.98-2.5,4.32-2.04,6.98-1.72,2.3-1.86,5.02-2.05,7.73-2.08,2.27-4.72,4.35-2.71,8.01-1.73,15.99-1.15,31.99-.14,48-1.84,4.15,1.05,6.92,2.92,9.98.12,1.19.24,2.38.36,3.56-.98,4.48,1.98,7.63,3.76,11.18l1.74,3.09c.35,5.89,1.84,11.22,7.23,14.62,1.08,1.69,2.15,3.39,3.23,5.08-.28,2.34.36,4.15,2.86,4.86,1.53,1.83,3.06,3.67,4.6,5.5,1.67,4.8,4.99,8.13,9.34,10.55,1.43,1.28,2.87,2.55,4.3,3.83.3,2.54,1.93,3.53,4.28,3.69,2.53,2.17,5.05,4.34,7.58,6.51.46,2.77,2.2,3.54,4.76,3.04.45.27.89.55,1.31.86,1.68,3.49,4.93,4.67,8.31,5.63,2.9.08,4.81,2.34,7.31,3.31,1.95,2.24,3.71,4.91,7.39,3.38,1.11.26,2.22.51,3.32.77,1.84,3.23,4.17,5.11,8,2.93,1.63.18,3.34.12,4.88.59,18.67,5.73,37.56,4.07,56.48,1.88,2.38,1.12,4.01.2,5.23-1.9,3.04-.45,6.07-.9,9.11-1.35,2.1.63,3.4-.33,4.28-2.14,1.14-.2,2.27-.4,3.41-.61,2.63,1,4.28.2,4.85-2.62,4.46-2.26,8.92-4.53,13.39-6.79,1.85-.58,4.42.04,4.81-2.93.42-.3.85-.61,1.27-.91,3.49-.04,5.35-2.25,6.74-5.07.43-.29.84-.6,1.25-.93,2.42.15,4.14-.68,4.62-3.27,5.81-4.88,11.05-10.35,16.05-16.04,2.62-.48,3.53-2.15,3.2-4.66.3-.42.61-.84.93-1.25,3.02-1.23,5.15-3.15,5.14-6.7.28-.44.55-.89.8-1.35,3.16-3.06,6.69-5.92,6.16-11.05.94-1.53,1.87-3.06,2.81-4.59,2.13-2.76,4.17-5.55,3.56-9.35.22-1.12.45-2.25.67-3.37,1.82-2.61,4.31-4.98,3.08-8.68.54-3.68,1.08-7.36,1.62-11.05,2.72-.69,3.36-2.05,1.4-4.27.2-3.3.28-6.62.64-9.91,1.38-12.74-2.3-24.98-3.65-37.45,1.35-3.71-.52-6.28-3.03-8.63-.2-1.15-.4-2.3-.6-3.46.82-3.82-1.73-6.39-3.44-9.28-.92-1.56-1.84-3.11-2.75-4.67,1.17-3.6-.88-5.62-3.59-7.32-.57-.98-1.15-1.96-1.72-2.94-1.6-4.07-2.75-8.42-6.92-10.85-.35-.39-.7-.78-1.06-1.17-1.58-4.8-4.39-8.56-9.06-10.76-2.06-1.98-3.68-4.47-6.45-5.64-.72-3.5-3.04-5.11-6.44-5.45-2.42-2.31-4.83-4.63-7.25-6.94-.93-3.9-4.35-2.35-6.73-3.08-7.15-3.64-14.06-7.8-21.71-10.4-1.08-1.16-.78-4.74-3.94-2.24-1.15-.21-2.3-.42-3.45-.63-.94-2.22-2.37-3.54-4.96-2.6-3.05-.39-6.1-.79-9.15-1.18-2.37-3.52-5.6-3.5-9.14-2.22-11.11-.51-22.22-1.23-33.29.6-2.24-1.93-3.65-1.09-4.56,1.37-5.62,1.27-11.29,1.55-16.91,3.79-4.64,1.85-9.17,5-14.55,5.03-2.83-.49-3.77,1.33-4.34,3.58-2.43,1.01-5.57.1-7.41,2.72-1.82.65-4.28.36-4.68,3.13-.47.24-.94.5-1.39.77Z"/>
    <path class="cls-2" d="m565.78,246.26c-.14-3.65-.4-7.31-.4-10.96-.04-58.28-.05-116.57-.06-174.85,0-2-.11-4,.03-5.99.27-3.86-1.58-5.47-5.29-5.45-7.33.04-14.65.04-21.98.01-3.58-.01-5.71,1.38-5.59,5.27.06,2,0,4,0,5.99.03,70.27.05,140.55.08,210.82,0,1-.05,2,0,3,.29,7.29.86,8,8.07,8.04,15.32.1,30.64.02,45.96.02,2.33,0,4.68-.13,6.99.09,3.37.31,5.65,2.04,5.69,5.7.07,7.66.07,15.32.03,22.98-.01,2.9-1.9,4.04-4.5,4.27-1.32.12-2.66.12-3.99.12-27.98,0-55.95.04-83.93-.03-8.09-.02-8.18-.16-8.18-8.43-.03-94.92-.04-189.84-.03-284.76,0-1.66.23-3.32.35-4.98.97.17,1.95.49,2.92.49,28.58.02,57.16.02,85.74-.01,2.97,0,6,.28,8.83-1.02,4.23,2.81,2.73,7.16,2.73,10.94.06,69.44.05,138.89.04,208.33,0,2.33-.04,4.65-.06,6.98-.02,2.16-.96,3.81-2.75,4.99-10.13-2.55-20.52.04-30.69-1.57Z"/>
    <path class="cls-2" d="m1637.66,288.39c0,6,.03,11.99,0,17.99-.05,8.83-.07,8.91-8.73,8.92-23.99.04-47.97.01-71.96.02-4,0-8-.16-11.99.06-4.16.23-6.33-1.23-6-5.64.12-1.66.03-3.33.03-5,0-92.62,0-185.23,0-277.85,0-.67-.01-1.33,0-2,.13-8.93.13-9.01,8.8-9.02,22.99-.04,45.97,0,68.96,0,4.66,0,9.33.12,13.99-.06,4.62-.17,6.76,2.03,6.94,6.47.04,1-.03,2-.03,3-.05,72.96-.1,145.92-.14,218.88-.78.62-1.47,1.62-2.34,1.81-8.51,1.88-17.15.67-25.73.75-2.28.02-3.35-1.98-3.45-4.18-.12-2.66-.11-5.33-.11-7.99,0-57.61,0-115.22,0-172.82,0-1.67.04-3.33,0-4.99-.19-7.77-.27-7.93-7.72-8.06-6.32-.12-12.65-.06-18.98-.01-8.86.07-8.97.1-8.98,8.78-.03,71.93-.03,143.85,0,215.78,0,10.44.4,10.82,10.53,10.85,15.98.06,31.97.13,47.95-.08,4-.05,7.18.47,8.97,4.41Z"/>
    <path class="cls-2" d="m246.33,601.89c-.1-40.58-.16-81.16-.36-121.74-.02-4.98,1.61-7.34,6.89-7.22,16.95.39,33.92-.61,50.87.59,3.7,2.5,7.94,3.54,12.19,4.54,1.71.42,3.43.84,5.14,1.27.98,2.09,2.72,2.79,4.9,2.71.68.68,1.35,1.36,2.03,2.04.3,4.27,3.11,7.16,5.58,10.25-.06.64.04,1.26.32,1.84-.18,2.5.3,4.72,2.66,6.12,0,3.35,0,6.7-.01,10.05-3.96,3.97-5.4,9.05-6.34,14.36-1.46,1.24-2.93,2.49-4.39,3.73-2.63.79-6.96.27-7.05,3.56-.12,4.28,4.3,3.54,7.31,3.9.97.55,1.95,1.11,2.92,1.66,3.9,4.47,7.8,8.94,11.71,13.4.29,1.13.58,2.25.87,3.38-1.75,2.42-.58,3.61,1.81,4.29.04,4.51.09,9.02.13,13.53-2.29.68-3.55,1.8-1.75,4.19-.34,1.79-.67,3.59-1.01,5.38-1.82,1.17-2.82,2.76-2.51,5-4.07,5.76-9.37,9.91-16.03,12.29-5.46.54-10.92,1.04-16.37,1.63-3.08.33-6.65-.65-8.63,2.93-15.62-.07-31.23-.14-46.85-.2-.64-1.97-2.17-2.91-4.02-3.49Zm63.71-29.14l.09-.1c2.68-.39,4.09-1.49,2.42-4.32-.03-3.34-.06-6.68-.09-10.02,1.69-2.71.48-3.94-2.24-4.4-1.27-1.54-2.51-3.17-4.61-3.55-8.22-1.46-16.51-.72-24.76-.58-2.78.05-3.76,2.31-3.76,4.92,0,6.29-.03,12.58-.01,18.87,0,2.19.9,4.32,3.21,4.21,8.35-.4,17.04,2.74,25-2.13,3.08,1.48,4.13-.37,4.75-2.91Zm-1.13-58.94c-1.54-11.47-3.31-13.19-14.02-13.3-4.97-.05-9.95.08-14.92.13-3.21-.53-4.61.36-2.91,3.7.07,5.34.13,10.67.2,16.01-1.85,1.98-.9,3.71.92,4.68,1.33.71,3.2.96,4.7.69,5.73-1.03,12.31,2.88,17.21-2.91,2.61-.55,4.6-1.9,5.67-4.43,1.69-1.08,4.57-1.34,3.15-4.56Z"/>
    <path class="cls-2" d="m1283.6,606.16c-1.2.16-1.67-.72-2.21-1.52-1.58-3.61-4.16-5.61-8.28-5.11-6.25-3.82-12.76-7.28-17.68-12.92.14-2.51-.98-4.03-3.51-4.43-2.46-3.72-4.92-7.44-7.37-11.15,1.42-2.9-.65-3.83-2.7-4.77-.34-1.79-.68-3.57-1.01-5.36,1.1-2.57.15-4.18-2.37-5.06-1.56-10.4-.9-20.84-.44-31.27,2.03-1.06,3.6-2.33,2.31-4.95.31-1.09.62-2.18.93-3.27,1.51-1.14,2.21-2.6,1.78-4.5,2.68-6.38,6.8-11.89,10.63-17.57,2.84-1.13,5.6-2.35,6.11-5.9,3.19-2.18,6.39-4.35,9.58-6.53,2.3.04,4.22-.48,4.68-3.17,14.15-7.34,29.98-8.73,44.38-5,21.5,5.57,41.18,15.9,47.61,40.44-.56,2.73,1.01,3.91,3.32,4.55,2.26,3.6,1.35,7.8,2.23,11.66-1.55,6.65-1.45,13.32-.24,20.01-.46,3.3-.07,6.75-1.78,9.82-2.64.49-3.58,1.74-1.89,4.18-6.45,16.52-17.94,28.39-33.57,36.45-3.22-.87-4.95,1.08-6.47,3.42-.64-.03-1.27.05-1.88.24-2.32-2.32-3.46-.81-4.41,1.35-11.06.91-22.13.96-33.19-.02-1.8-3.2-3.34-3.27-4.57.38Zm.14-33.8c1.1.44,2.2.88,3.29,1.32,2.81,1.93,4.78,5.82,9.22,3.93,7.09.26,14.35,2.14,20.96-2.19,3.2,1.27,5.27-.08,6.71-2.9,6.65-4.47,13.26-8.98,14.02-18.04,4.09-2.48,6.27-5.81,4.74-10.77,0-2.93-.01-5.85-.02-8.78,1.35-4.55-1.49-7.8-3.5-11.31-3.43-6-6.51-12.32-13.46-15.21-1.77-4.85-5.73-5.77-10.24-5.69-5.53-2.72-11.38-1.49-17.14-1.43-4.69-1.26-7.94,1.39-11.17,4.11-4.96,2.38-8.67,6.17-11.86,10.55-9.34,7.12-9.46,17.54-8.83,27.59.27,4.39-.07,10.03,4.73,13.25,1.58,2.47,3.15,4.94,4.73,7.41.98,4.28,3.54,7.05,7.83,8.16Z"/>
    <path class="cls-2" d="m920.48,566.83c0,9.66.11,19.32,0,28.98-.09,8.5-1.41,9.74-9.8,9.83-4,.05-8,.12-11.99-.02-7.16-.24-7.94-.87-8.03-8.21-.16-13.66-.03-27.32-.03-40.98,0-24.65-.05-49.31.01-73.96.02-9.38.14-9.51,9.5-9.49,15.65.03,31.3.25,46.95.38,5.29,2.47,10.84,3.39,16.64,2.86,1.82.29,3.63.58,5.45.87,1.74,3.98,5.54,3.96,8.98,4.65,6.44,3.56,8.83,10.24,12.35,16.05-.44,1.89-.03,3.46,1.71,4.52.07,10,.13,20.01.2,30.01-4.21,4.76-5.6,10.86-7.86,16.55-2.04,1.61-4.09,3.21-6.13,4.82-9.76,1.91-12.58,5.86-4.98,12.9.32,2.14,1.09,4.03,3.04,5.22.52,5.2,2.67,9.56,6.63,12.99.64.96,1.28,1.91,1.91,2.87-.76,2.39-.53,4.32,2.37,4.96l2.37,5.67c.37,2.47.92,4.95-.58,7.27-7,.05-14,.09-21.01.14-.96-2.12-2.59-3.06-4.91-2.74-.9-1.33-1.79-2.66-2.69-4-.08-3.67-1.53-6.69-4.37-9.02-.65-.97-1.31-1.94-1.96-2.9.81-2.33.77-4.29-2.15-5.03-.55-1.01-1.1-2.02-1.65-3.03,1.49-3.03-1.02-3.57-2.83-4.55-.71-4.1-2.88-7.43-5.56-10.49-4.68-3.77-17.36-4.79-21.17-1.52-1.27,1.08-1.45,2.82-.44,4.4Zm42.11-59.1c-3.93-5.61-9.43-7.52-16.1-7.29-7.5.26-15.01.14-22.51.19-3.05-.86-4.54.92-4.57,3.46-.12,9.5-.03,19,.16,28.5.05,2.73,1.54,4.23,4.53,3.26,6.97.04,13.95.23,20.92.1,12.42-.25,19.1-7.13,19.31-19.62,1.83-3.35,2.23-6.42-1.74-8.6Z"/>
    <path class="cls-2" d="m1853.22,605.5c-4.66.05-9.32.16-13.98.15-10.8-.04-12.17-1.39-12.17-11.95,0-33.3,0-66.6,0-99.9,0-4.33-.24-8.67.01-12.98.35-5.92,2.04-7.57,7.99-7.81,5.32-.22,10.66.14,15.98-.08,5.14-.21,7.12,1.93,7.02,7.07-.22,11.98-.09,23.98-.07,35.96.01,9.47.03,9.54,8.95,9.58,10.99.06,21.98.06,32.97-.05,8.86-.08,8.89-.17,8.93-8.76.06-11.32-.01-22.64.1-33.97.09-9.09.7-9.65,9.55-9.76,4.33-.06,8.67.15,12.98-.07,5.02-.26,7.45,1.57,7.12,6.89-.28,4.65-.07,9.32-.07,13.98,0,33.3,0,66.6,0,99.9,0,2-.03,4-.02,5.99.02,4.13-2.03,6.05-6.16,5.99-4.99-.08-9.99.08-14.98-.04-6.72-.17-8.28-1.49-8.42-8.15-.21-10.32-.06-20.65-.01-30.97.07-15.37.8-14.83-14.61-14.69-9.66.09-19.31-.07-28.97.03-6.9.07-7.26.4-7.37,7.41-.22,14.31-.28,28.62-.4,42.93-1.95.46-3.64,1.26-4.4,3.31Z"/>
    <path class="cls-2" d="m1417.41,502.05c.89-1.14,1.79-2.29,2.68-3.43,2.3-.66,3.69-1.97,3.32-4.57,1.35-1.36,2.71-2.71,4.06-4.07,2.46.18,3.86-1.1,4.57-3.33,1.12-.93,2.24-1.87,3.36-2.8,3.32-1.02,6.78-1.81,8.57-5.29,1.6-.24,3.48-.01,4.76-.78,14.4-8.63,29.44-5.5,44.49-2.67,2.19,3.42,5.72,2.53,8.9,2.78l2.89,1.85c1.86,2.32,3.91,4.3,7.23,3.92l7.31,6.91c0,1.83,0,3.66-.01,5.49l-.05.05c-3.24,1.02-5.1,3.13-5.22,6.62-4.11,2.96-5.98,9.19-12.52,8.63-1.74-2.07-3.04-4.85-6.56-4.06-.9-.7-1.81-1.4-2.71-2.09-3.36-2.51-6.97-4.25-11.32-3.69-5.66.02-11.5-1.7-16.84,1.63-2.79-.64-5.33-.46-7.19,2.09-5.21,4.44-11.19,7.91-15.28,13.77-1.71,2.45-1.66,4.86-2.29,7.34-5.94,9.53-4.46,23.92,3.54,34.51,2.25,5.89,8.61,7.6,12.25,12.07,1.51,3.47,4.18,3.21,7.09,2.2,6.52,4.4,13.7,2.92,20.77,2.31,4.14-.41,8.56-.2,10.77-4.87,2.54-2.29,5.21-4.46,6.9-7.53,2.06-1.75,4.9-3.14,3.1-6.68.24-3.61-1.9-4.52-4.98-4.49-6.65.05-13.31-.04-19.96.07-4.52.08-6.68-1.74-6.67-6.48.05-21.57-1.22-18.21,16.91-18.34,10.98-.08,21.96-.07,32.93.01,3.28.02,6.68-.71,9.79,1.05.19,8.9.38,17.8.57,26.69-.22,2.5-.43,5-.64,7.5-2.13,1.72-4.17,3.48-2.8,6.67-.64,1.62-1.28,3.25-1.93,4.87-2.64.64-3.11,2.54-2.85,4.87-.31.42-.65.83-.99,1.22-2.33.56-3.77,1.81-3.51,4.42-3.24,3.45-6.48,6.91-9.73,10.36-3.57.64-7.21,1.16-8.53,5.37-14.13,5.18-28.72,4.95-43.4,3.67-3.07-4.75-8.37-3.72-12.8-4.94-1.78-.94-3.56-1.88-5.34-2.82-.5-2.66-2.31-3.33-4.71-3.08-1.14-.93-2.27-1.86-3.41-2.78-2.92-5.04-6.9-9.05-11.85-12.1-.93-1.12-1.87-2.24-2.8-3.36.74-2.91-1.51-3.55-3.39-4.48.05-.62-.13-1.14-.56-1.59-.19-4.85-1.82-9.06-5.46-12.39-3.11-14.79-2.57-29.42,1.95-43.88,2.08-.82,4.52-1.39,3.08-4.58.41-1.06.81-2.11,1.22-3.17,2.52-.51,3.41-2.19,3.3-4.58Z"/>
    <path class="cls-2" d="m2162.71,573.76c-.51-.99-1.03-1.98-1.54-2.97-1-4.63-2.06-9.45-7.9-9.93-4.61-.38-9.31-.3-13.93.13-3.2.29-5.8,1.88-4.33,5.98-.11,11.8-.21,23.6-.32,35.4-1.6.58-2.9,1.48-3.44,3.2-6.99.02-13.99.05-20.98.07-.88-1.89-2.25-3.14-4.39-3.4-1.22-2.88-.74-5.91-.74-8.89-.01-35.98,0-71.95,0-107.93,0-1.67-.15-3.34,0-4.99.55-6.16,1.7-7.42,8.07-7.42,15.98,0,31.96.25,47.95.39,5.99,2.39,12.13,3.91,18.65,3.02,7.81,2.08,14.17,6.5,19.75,12.2.34,2.24,1.54,3.67,3.83,4.07,5.21,12.11,5.89,24.75,4.46,37.65-2.19,1.45-4.04,3.03-2.41,6.01-.22,1.12-.44,2.24-.65,3.35-2.58,1.63-4.63,3.6-4.57,6.97-2.03,2.02-4.06,4.05-6.09,6.07-2.38-.14-4.14.63-4.65,3.21-4.88,1.32-5.33,4-2.37,7.73-.9,2.4-.5,4.23,2.19,5.07.2,1.17.41,2.35.61,3.52,4.56,8.47,7.83,17.71,14.78,24.75.39,1.11.79,2.22,1.18,3.33-.87.96-1.71,2.73-2.62,2.76-9.15.34-18.63,3.1-27.04-3.08-.26-.46-.54-.89-.86-1.31-.01-2.72.02-5.46-3.17-6.68-.87-1.16-1.75-2.32-2.62-3.48-.94-2.26-.26-5.24-2.99-6.7-.42-1.04-.84-2.08-1.25-3.12.29-2.26-.75-3.82-2.6-4.95Zm-26.95-39.4c-.11,1.77.62,2.33,2.27,1.59,9.1-.11,18.19-.23,27.29-.34,4.6,1.49,6.53-2.05,8.92-4.73l1.93-2.23c3.56-1.79,4.48-4.7,3.55-8.39-2.14-5.26-.36-11.96-5.87-15.98-.84-2.04-1.37-4.55-4.58-3.1-9.53-1.4-19.12-.43-28.68-.68-3.54-.09-5.72,1.34-5.57,5.19.38,9.55-.8,19.15.75,28.67Z"/>
    <path class="cls-2" d="m2068.19,582.33c.02,6,.05,12,.07,18.01-1.6.83-2.56,2.07-2.53,3.94-2.36,1.62-5.04,1.39-7.7,1.39-22.95-.01-45.91.03-68.86-.03-8.34-.02-8.72-.26-8.74-8.19-.08-38.92-.02-77.85-.06-116.77,0-4.36.21-7.85,6.16-7.8,25.61.22,51.23.18,76.84.28.95,0,1.9.55,2.84.84-.48,8.79,1.6,17.82-2.48,26.27-15.57.07-31.14.08-46.72.24-7.79.08-8.15.26-8.05,7.66.28,20.46-3.41,16.96,17.07,17.35,9.61.18,19.22.07,28.83-.02,3.49-.03,6.72.11,7.85,4.28-1.03,1.79-1.13,3.53.26,5.2,0,2.91,0,5.82,0,8.73-1.44,1.58-1.15,3.33-.49,5.12-2.5,3.7-6.34,3.01-9.94,3.02-11.63.01-23.27-.11-34.9.03-7.9.09-8.53.82-8.73,8.49-.09,3.65.23,7.33-.08,10.96-.44,5.28,1.82,6.99,6.93,6.9,12.96-.23,25.92-.11,38.88-.06,3.65.01,7.29.27,10.93.42.19,1.73,1.1,2.95,2.61,3.76Z"/>
    <path class="cls-2" d="m1604.07,577.94c15.31.06,30.62.07,45.92.2,8.25.07,8.27.16,8.41,8.38.05,2.99.03,5.99,0,8.99-.08,10.08-.09,10.13-9.87,10.15-21.97.03-43.94.01-65.9.01-1.33,0-2.66,0-3.99,0-4.92.04-7.39-2.4-7.41-7.3-.01-2,.03-3.99.03-5.99,0-35.28,0-70.57,0-105.85,0-1.33-.02-2.66,0-3.99.11-9.46.11-9.53,9.24-9.56,16.31-.05,32.62,0,48.93,0,7.32,0,14.65.2,21.97-.08,5.11-.19,7.39,1.66,7.08,6.9-.26,4.31.08,8.66-.08,12.98-.27,7.09-.82,7.64-8.4,7.71-15.31.15-30.61.16-45.92.23-.89.21-2.44.21-2.58.65-2.37,7.64-1.84,15.39-.44,23.1.25,1.39,1.93,1.47,3.28.96,13.92.04,27.84.03,41.76.14,8.37.07,8.46.21,8.64,8.15.07,2.98.06,5.97,0,8.95-.16,7.9-1.13,9.01-9.32,9.16-13.9.26-27.81.3-41.72.43-1.48-.13-2.71.49-2.95,1.9-1.21,7.16-.72,14.38-.29,21.57.1,1.7,1.64,2.73,3.62,2.22Z"/>
    <path class="cls-2" d="m765.22,602.35c-.16-4.31-.44-8.62-.45-12.92-.04-35.23-.04-70.47-.02-105.7,0-10.67.05-10.73,10.19-10.75,22.6-.04,45.2-.05,67.81,0,9.54.02,9.68.12,9.68,9.24-.02,21.44,1.79,18.04-17.78,18.25-11.63.12-23.27.04-34.9.04-1.84-1.91-4.2-1.45-4.63.6-1.59,7.7-1.48,15.53-.05,23.27.26,1.41,1.91,1.48,3.26.97,14,.06,27.99.04,41.99.22,7.48.09,7.73.49,7.89,8.05.06,3,.09,6-.01,9-.26,7.39-2,9.16-9.67,9.22-13.33.11-26.65.02-39.98,0-1.94-.99-3.51-.17-3.73,1.67-.89,7.58-1.2,15.21.15,22.78.26,1.45,1.67,1.88,3.13,1.6,15.3.08,30.61.11,45.91.27,8.15.08,8.26.26,8.43,8.48.08,3.99-.07,7.99.06,11.98.15,5.05-2.15,7.17-7.21,7.11-13.64-.15-27.29,0-40.93-.07-11.97-.06-23.94-.27-35.91-.41-.38-1.74-1.64-2.49-3.22-2.87Z"/>
    <path class="cls-2" d="m457.31,551.84c-15.8.46-31.62-.92-47.4.71-2.07-.37-3.28.93-3.33,2.59-.19,6.84-.22,13.69-.04,20.54.04,1.72,1.45,2.82,3.47,2.29,14.94.05,29.88.08,44.82.18,3.25.02,6.7-.77,9.53,1.72,1.17,5.43-1.42,11.3,1.94,16.47-.08,1.47-.15,2.94-.23,4.41-2.74.04-4.13,1.26-3.64,4.14-3.16,1.6-6.54.73-9.81.74-21.26.08-42.52.07-63.78.02-3.53,0-7.46,1.08-10.01-2.71.13-5.32.37-10.64.38-15.96.07-37.63.1-75.26.14-112.89,2.08-1.44,4.45-1.12,6.76-1.12,23.29,0,46.58,0,69.87.01,2.61,0,5.37-.58,7.59,1.49-.26,1.78-.57,3.59,2.03,3.88,1.33,4.22.62,8.56.57,12.83-.07,7.16-2.27,9.24-9.65,9.3-12.59.11-25.19.01-37.79,0-1.99,0-3.98.04-5.97.03-3.72-.03-5.4,1.77-5.31,5.51.11,4.64.24,9.29-.01,13.92-.25,4.56,2.1,5.65,6.04,5.63,12.26-.08,24.53-.04,36.79-.02,9.72.02,9.76.04,9.74,9.89,0,4.3-.24,8.6-.36,12.89-2.08.3-2.49,1.72-2.35,3.51Z"/>
    <path class="cls-2" d="m496.64,475.69c2.06-2.81,5.04-2.76,8.11-2.76,29,.04,57.99-.02,86.99.05,8.1.02,8.13.18,8.25,8.55.06,4.33-.04,8.67,0,13,.05,4.14-1.85,6.07-6.07,5.99-6.66-.12-13.33-.06-20-.03q-10.74.05-10.74,11.29c0,27.33,0,54.66,0,81.99,0,2,.22,4.04-.13,5.98-.64,3.59-2.42,6.09-6.65,5.98-5.33-.14-10.67-.25-15.99-.02-5.22.22-7.16-2.16-7.07-7.16.16-8,.06-16,.06-24,0-22,.05-44-.02-65.99-.02-7.85-.14-7.95-7.68-8.05-7.33-.1-14.66.02-22,.05-5.7-2.22-7.29-6.49-6.8-12.31.35-4.15-.16-8.36-.29-12.55Z"/>
    <path class="cls-2" d="m1789.72,500.28c-8.31.07-16.63.08-24.94.22-8.11.13-8.23.19-8.25,8.54-.06,27.62-.02,55.24-.02,82.87,0,2,.11,4,0,5.99-.34,6.74-1,7.51-7.47,7.75-4.65.17-9.32.16-13.97.01-6.39-.2-8.08-1.87-8.44-8.36-.18-3.32.04-6.65.04-9.98,0-25.96.02-51.92-.05-77.87-.02-8.64-.24-8.78-9.05-8.88-7.32-.08-14.64-.02-21.96-.05-1.68,0-3.31-.29-4.48-1.71.01-8.3.03-16.6.04-24.9,2.48-1.3,5.17-.93,7.8-.93,28.15-.02,56.3-.03,84.44,0,10.15.01,10.81.66,10.85,10.55.02,4.29-.29,8.58-.45,12.86-2.86-.27-4.24,1.01-4.11,3.89Z"/>
    <path class="cls-2" d="m1105.14,473.89c1.79-1.22,3.83-.92,5.8-.92,28.99,0,57.98-.02,86.97.04,8.29.02,8.31.13,8.48,8.28.07,3.33.07,6.67,0,10-.17,8.76-.45,9.07-8.93,9.19-6.33.09-12.66-.05-18.99.08-7.52.16-7.84.38-7.87,8.05-.09,27.99-.04,55.98-.03,83.97,0,2,.13,4,.07,6-.09,2.97-1.8,5.69-4.29,6.18-7.83,1.57-15.83,1.65-23.69-.06-2.12-.46-2.87-2.66-2.96-4.77-.11-2.33-.08-4.66-.08-6.99,0-27.99.03-55.98,0-83.97-.01-8.31-.1-8.37-8.24-8.47-6.66-.08-13.33.01-19.99,0-2.3,0-4.71.4-6.56-1.55.11-8.35.21-16.7.32-25.05Z"/>
    <path class="cls-2" d="m689.22,605.6c-5.49.02-10.98-.07-16.47.12-3.07.1-5.78-.31-7.83-2.82.1-31.81.25-63.62.25-95.43,0-7.56-.95-8.33-8.76-8.47-6.96-.12-13.92-.14-20.88.04-3.97.1-6.53-1.04-6.37-5.43.25-6.92-1.02-13.92.97-20.76,29.73.04,59.46.06,89.19.12,3.82,0,8.01-1.03,10.57,3.21l-.21,22.11c-2.47,3.25-6.02,2.12-9.2,2.17-6.96.11-13.92.09-20.88,0-3.3-.05-4.94,1.42-5,4.67-.05,2.32-.03,4.64-.03,6.96,0,26.84.02,53.69-.02,80.53,0,3.29.59,6.64-.71,9.84-2.09.23-3.9.9-4.63,3.14Z"/>
    <path class="cls-2" d="m1373.5,222.55c-8.71-7.83-19.37-6.83-29.92-6.82-71.2.08-142.39.04-213.59.04-1,0-2-.01-2.99,0-9.84.1-9.97.1-9.89,10,.09,11.61-.93,23.3,1.88,34.77.32,1.32.26,2.63-.67,3.75-3.71-2.69-3.95-6.79-4.01-10.75-.19-10.97-.31-21.94-.14-32.9.1-6.85,1.18-7.71,8.44-7.94,5.31-.16,10.63-.04,15.95-.04,71.46,0,142.91.03,214.37-.05,5.41,0,10.48.48,15.38,3.12,2.96,1.59,4.45,3.8,5.2,6.82Z"/>
    <path class="cls-2" d="m2452.4,314.76c.03-96.54.06-193.08.05-289.62,0-2.98-.36-5.96-.55-8.94,2.11-.06,2.98,1.37,3.14,3.09.24,2.65.19,5.32.19,7.99,0,92.33.03,184.65-.11,276.98,0,3.52,2.31,8.11-2.72,10.5Z"/>
    <path class="cls-2" d="m953.5,226.52c-1.37-.09-2.79-.38-3.49-1.6-4.59-7.97-11.97-9.23-20.33-9.21-72.53.11-145.06.07-217.59.05-5.65,0-11.31-.19-16.96-.3.31-1.42,1.12-2.46,2.6-2.55,2.65-.17,5.32-.24,7.98-.24,74.98-.01,149.96,0,224.94,0,4.65,0,9.11.13,13.59,2.28,5.21,2.49,8.73,5.67,9.26,11.58Z"/>
    <path class="cls-2" d="m370.4,49.76c1.47.27,2.37,1.17,2.45,2.65.14,2.66.19,5.32.19,7.98.01,69.94.05,139.89-.1,209.83,0,3.5,2.27,8.1-2.82,10.42-.03-72.96-.07-145.92-.09-218.89,0-3.99.23-7.99.36-11.98Z"/>
    <path class="cls-2" d="m985.63,72.41c3.77,1.65,4.48,4.68,3.41,8.23-.98,3.25-3.92,3.19-6.58,3.29s-5.33.04-8,.04c-66.98.02-133.95.04-200.93.06,2.77-4.77,7.48-3.41,11.58-3.43,24.94-.1,49.89-.05,74.83-.05,37.91,0,75.83,0,113.74,0,1.66,0,3.33.05,4.99,0q6.91-.23,6.95-8.15Z"/>
    <path class="cls-2" d="m1150.13,256.31c-2.35-7.8-1.66-9.11,5.23-9.55,2.32-.15,4.65-.02,6.98-.02,62.8,0,125.6.02,188.4-.03,5.25,0,10.49-.5,15.74-.76-3.46,5.13-8.85,3.8-13.64,3.81-59.25.08-118.5.06-177.76.06-5.33,0-10.7.43-15.97-.13-5.43-.58-7.74,2.04-8.98,6.62Z"/>
    <path class="cls-2" d="m1388.06,272.67c-1.93,5.67-7.67,6.63-11.95,7.69-7.31,1.81-14.76,3.62-22.56,3.61-56.98-.11-113.97.02-170.95.13-3.09,0-6.15.45-6.96-3.66,16.96,0,33.91,0,50.87,0,38.65,0,77.31-.3,115.95.14,15.83.18,31.11-1.12,45.59-7.91Z"/>
    <path class="cls-2" d="m725.97,250.51c.07-2.5,1.67-3.49,3.85-3.61,2.98-.16,5.97-.15,8.95-.15,62.39,0,124.79,0,187.18-.02,5.3,0,10.61-.18,15.91-.28-.4,2.44-2.13,3.2-4.29,3.26-2.99.09-5.99.1-8.98.1-63.23,0-126.46-.01-189.69.03-4.31,0-8.62.44-12.93.67Z"/>
    <path class="cls-2" d="m1409.49,80.07c.49,2.01-.5,3.34-2.3,3.62-2.28.35-4.64.28-6.97.28-67.58,0-135.17-.02-202.75-.04.22-1.88,1.24-3.11,3.14-3.21,2.99-.16,5.99-.16,8.99-.16,62.98,0,125.96,0,188.93-.02,3.65,0,7.31-.31,10.96-.47Z"/>
    <path class="cls-2" d="m944.02,280.66c-3.02,4.36-7.66,3.15-11.77,3.16-30.51.1-61.02.05-91.53.05-24.87,0-49.74.06-74.62-.06-3.75-.02-8.14,1.35-10.68-3.12,7.3-.09,14.6-.24,21.9-.26,54.93-.13,109.86-.24,164.79-.33.64,0,1.27.36,1.91.55Z"/>
    <path class="cls-2" d="m630.13,472.85c-1.98,6.84-.72,13.84-.97,20.76-.16,4.39,2.41,5.53,6.37,5.43,6.95-.18,13.92-.16,20.88-.04,7.82.14,8.76.91,8.76,8.47,0,31.81-.15,63.62-.25,95.43-4.67-2.1-2.73-6.31-2.75-9.61-.15-25.91-.08-51.83-.08-77.74,0-1.66.03-3.32,0-4.98-.16-8.35-.16-8.42-8.17-8.54-6.31-.1-12.63.1-18.93-.04-7.28-.16-8.28-1.02-8.54-7.83-.21-5.64-.15-11.3.12-16.93.09-1.98-.3-5.11,3.55-4.37Z"/>
    <path class="cls-2" d="m2355.89,16.38c-.18,3.32-.51,6.64-.51,9.96-.03,41.32-.01,82.65,0,123.97,0,1.67.08,3.34,0,5-.09,1.91.31,4.41-2.48,4.6-2.53.18-4.56-.92-4.67-3.94,1.6-.22,3.51-.18,3.65-2.39.17-2.65.08-5.31.08-7.96,0-39.51-.06-79.01.08-118.52.01-3.81-2.13-8.86,3.85-10.71Z"/>
    <path class="cls-2" d="m379.37,474.08c-.04,37.63-.07,75.26-.14,112.89-.01,5.32-.25,10.64-.38,15.96-3.51-1.02-3.02-3.95-3.02-6.53-.03-37.94-.03-75.88,0-113.83,0-3.26-.25-6.75,3.55-8.48Z"/>
    <path class="cls-2" d="m1379.76,186.27c1.41-1.49,2.95-1.16,4.44-.21,15.91,10.06,27.11,23.71,27.87,43.03.61,15.59-4.29,29.79-17.64,39.69,2.35-8.03,9.48-13.28,11.84-21.52,4.46-15.58,3.51-30.05-6.5-43.18-5.48-7.18-12.45-12.87-20.01-17.81Z"/>
    <path class="cls-2" d="m596.49,16.58c-2.83,1.3-5.86,1.02-8.83,1.02-28.58.03-57.16.03-85.74.01-.97,0-1.95-.32-2.92-.49,1.24-3.27,4.11-2.91,6.72-2.91,28.26-.04,56.53-.04,84.79-.03,2.28,0,4.77-.35,5.98,2.4Z"/>
    <path class="cls-2" d="m2055.76,197.02c.6-14.01.97-28.02,1.02-42.05.03-7.24-2.47-14.16-1.71-21.37,3.34.37,2.97,3.17,3.18,5.27,1.75,17.74,1.61,35.49.14,53.24-.16,1.9-.4,4.01-2.63,4.92Z"/>
    <path class="cls-2" d="m1873.78,326.12c18.86,2.07,37.6-.95,56.4-1.24-5.82,4.61-13.17,2.92-19.71,4.35-9.66,2.11-19.85,1.1-29.8.3-2.71-.22-5.24-.96-6.89-3.4Z"/>
    <path class="cls-2" d="m228.59,269.69c-4.01,12.57-6.09,14.19-18.22,14.18-6.62,0-13.25-.15-19.86.05-5.76.17-9.6-1.78-10.43-7.91,4.6,3.51,9.67,5.25,15.55,4.46,2.28-.3,4.67-.31,6.95,0,10.79,1.44,20.23-.2,26.01-10.78Z"/>
    <path class="cls-2" d="m2418.07,280.6c-.07,2.6-1.82,3.22-3.95,3.23-13.42.03-26.84.04-40.26.01-2.02,0-3.93-.41-4.64-2.74,16.27-1.36,32.56-.5,48.84-.5Z"/>
    <path class="cls-2" d="m732.9,122.85c-8.57-10.04-9.32-21.82-6.68-33.89.82-3.74.88-8.55,5.13-10.99.03.65.26,1.38.07,1.95-7.71,22.54-2.55,23.86,1.48,42.93Z"/>
    <path class="cls-2" d="m98.31,314.78c-.07-15.03.92-30.1-1.78-45.02,4.87,1.75,4.52,6.52,4.72,10.02.58,10.27.27,20.58.26,30.88,0,2.11-.58,3.96-3.2,4.13Z"/>
    <path class="cls-2" d="m94.09,191.98c4.93,1.97,4.94,7.37,7.41,11.02,5.46,8.07,10.05,16.73,14.89,25.2.4.69,0,1.84-.02,2.77-10.07-11.49-16.98-24.78-22.28-38.99Z"/>
    <path class="cls-2" d="m2176.2,600.01c8.41,6.18,17.89,3.41,27.04,3.08.91-.03,1.75-1.8,2.62-2.76,2.08.26,3.2,1.6,1.94,3.27-1.34,1.78-3.33,3.15-5.91,3.13-6.27-.06-12.55.16-18.82-.11-3.95-.17-7.05-1.84-6.88-6.61Z"/>
    <path class="cls-2" d="m1443.08,560.83c-8-10.6-9.48-24.98-3.54-34.51,2.29,3.51-.41,6.85-.74,10.16-.87,8.67,3.38,16.17,4.28,24.35Z"/>
    <path class="cls-2" d="m370.02,280.71c-.32,2.49-2.2,3.04-4.2,3.07-7.79.09-15.57.1-23.36.05-2.36-.02-4.64-.45-4.61-3.63,10.72.17,21.45.35,32.18.52Z"/>
    <path class="cls-2" d="m2135.02,566.96c-1.48-4.1,1.13-5.68,4.33-5.98,4.61-.42,9.31-.51,13.93-.13,5.84.49,6.9,5.31,7.9,9.93-7.95-7.81-16.19-9.01-26.15-3.83Z"/>
    <path class="cls-2" d="m1118.31,79.59c-.51,10.43-1.02,20.86-1.54,31.29-.67-.65-1.84-1.23-1.93-1.95-1.04-8.71-1.48-17.42.42-26.1.39-1.78,1.22-2.92,3.04-3.24Z"/>
    <path class="cls-2" d="m496.64,475.69c.13,4.19.64,8.4.29,12.55-.49,5.82,1.11,10.1,6.8,12.31-4.36,3.33-7.5-.31-8.28-3.06-2.03-7.19-4.05-14.83,1.18-21.8Z"/>
    <path class="cls-2" d="m565.78,246.26c10.17,1.61,20.56-.98,30.69,1.57-9.79,3.76-19.78,2.01-29.72.91-.41-.05-.65-1.62-.97-2.48Z"/>
    <path class="cls-2" d="m798.33,525.34c-1.35.51-3,.45-3.26-.97-1.43-7.74-1.53-15.57.05-23.27.42-2.05,2.78-2.52,4.63-.6-4.52,8.05-2.51,16.47-1.42,24.84Z"/>
    <path class="cls-2" d="m762.94,91.76c-2.45,10.55,2.45,17.67,10.79,23.2-12.68-3.1-17.53-13.54-10.79-23.2Z"/>
    <path class="cls-2" d="m2190.55,281.82c-7.96,3.27-23.6,2.88-29.34-.72,9.8-.76,19.62-1.8,29.34.72Z"/>
    <path class="cls-2" d="m2063.72,500.26c4.08-8.45,2-17.48,2.48-26.27.8.47,2.17.82,2.3,1.42,1.44,7.11,1.18,14.3.19,21.43-.32,2.32-2.05,4.12-4.97,3.43Z"/>
    <path class="cls-2" d="m798.09,577.88c-1.47.28-2.88-.16-3.13-1.6-1.35-7.57-1.05-15.19-.15-22.78.22-1.83,1.79-2.66,3.73-1.67-1.95,8.65-1.7,17.34-.44,26.05Z"/>
    <path class="cls-2" d="m741.99,22.58c-6.99,5.85-14.25,11.3-22.25,15.72.19-2.91,1.87-5.08,4.23-6.26,6.07-3.04,10.92-8.41,18.03-9.46Z"/>
    <path class="cls-2" d="m1604.33,525.41c-1.35.51-3.03.43-3.28-.96-1.41-7.71-1.93-15.47.44-23.1.14-.44,1.69-.44,2.58-.65-1.39,8.25-1.72,16.49.27,24.71Z"/>
    <path class="cls-2" d="m1532.55,556.84c-.19-8.9-.38-17.8-.57-26.69.6.21,1.65.29,1.74.63,2.34,8.8,4.09,17.6-1.17,26.06Z"/>
    <path class="cls-2" d="m410.01,577.96c-2.02.53-3.42-.57-3.47-2.29-.18-6.84-.15-13.69.04-20.54.05-1.66,1.26-2.95,3.33-2.59-1.25,8.48-1.74,16.95.1,25.41Z"/>
    <path class="cls-2" d="m1604.07,577.94c-1.98.51-3.52-.52-3.62-2.22-.43-7.19-.92-14.4.29-21.57.24-1.41,1.47-2.03,2.95-1.9-.56,8.57-1.42,17.15.38,25.69Z"/>
    <path class="cls-2" d="m1441.85,244.33c.03-7.35.07-14.7.1-22.04,6.33,5.83,2.73,13.05,2.68,19.75-.01,1.4-1.44,2.02-2.78,2.29Z"/>
    <path class="cls-2" d="m2204.67,597c-6.95-7.04-10.22-16.28-14.78-24.75,1.12.62,2.83.95,3.28,1.89,3.64,7.72,10.26,13.95,11.51,22.86Z"/>
    <path class="cls-2" d="m206.36,240.77c1.53-9.17,7-16.13,12.84-22.88.48,2.4-.15,4.47-1.78,6.28-4.5,4.99-5.78,12.13-11.06,16.6Z"/>
    <path class="cls-2" d="m1105.14,473.89c-.11,8.35-.21,16.7-.32,25.05-1.3-.4-2.57-1.13-2.76-2.46-.97-6.75-1.36-13.52.27-20.23.32-1.3,1.42-2.11,2.8-2.36Z"/>
    <path class="cls-2" d="m297.2,605.59c1.99-3.59,5.55-2.6,8.63-2.93,5.45-.59,10.91-1.09,16.37-1.63-7.73,4.82-16.21,5.58-25.01,4.57Z"/>
    <path class="cls-2" d="m920.48,566.83c-1.02-1.58-.83-3.32.44-4.4,3.81-3.27,16.5-2.24,21.17,1.52-7.18,1.14-14.92-1.94-21.61,2.88Z"/>
    <path class="cls-2" d="m1691.19,473.89c-.01,8.3-.03,16.6-.04,24.9-5.47-6.18-1.78-13.59-2.66-20.39-.24-1.89.16-3.99,2.7-4.51Z"/>
    <path class="cls-2" d="m220.18,216.67c2.56-8.59,7.08-16.08,12.84-22.88-1.97,8.92-6.69,16.3-12.84,22.88Z"/>
    <path class="cls-2" d="m255.19,91.9c-3.22,8.23-6.16,16.63-13.37,22.49,3.35-8.16,6.59-16.38,13.37-22.49Z"/>
    <path class="cls-2" d="m1151.3,306.95c7.63,2.17,15.51,3.62,22.46,7.74-8.64.76-16.12-1.84-22.46-7.74Z"/>
    <path class="cls-2" d="m1907.77,2.95c-7.33,1.58-14.65,1.37-21.97-.09,7.34-4.07,14.66-3.59,21.97.09Z"/>
    <path class="cls-2" d="m729.69,498.29l.21-22.11c.82.44,2.24.74,2.38,1.33,1.5,6.46,1.71,12.98-.14,19.41-.18.64-1.6.92-2.45,1.36Z"/>
    <path class="cls-2" d="m743.73,176.36c7.81.46,15.73.36,22.6,5.04-7.92.04-15.74-.34-22.6-5.04Z"/>
    <path class="cls-2" d="m992.24,292.77c4.23-6.37,9.06-12.17,15.49-16.47-3.06,7.47-6.46,14.62-15.49,16.47Z"/>
    <path class="cls-2" d="m1371.35,550.34c-1.21-6.68-1.31-13.35.24-20.01,4.01,6.72,3.96,13.39-.24,20.01Z"/>
    <path class="cls-2" d="m697.9,128.15c6.24,4.75,7.77,12.15,10.61,18.82-6.22-4.76-8.74-11.61-10.61-18.82Z"/>
    <path class="cls-2" d="m703.12,59.85c-1.89,7.38-3.19,14.98-8.27,21.11.36-7.98,2.96-15.08,8.27-21.11Z"/>
    <path class="cls-2" d="m2179.79,476.42c-6.52.89-12.66-.63-18.65-3.02,6.76-2.35,12.93-1.04,18.65,3.02Z"/>
    <path class="cls-2" d="m1016.73,56.92c-4.97-4.75-7.62-10.94-10.61-16.93,6.22,3.96,9.56,9.73,10.61,16.93Z"/>
    <path class="cls-2" d="m1433.74,194.31c-3.63-5.18-8.17-9.81-9.69-16.25,6.19,5.3,9.07,10.13,9.69,16.25Z"/>
    <path class="cls-2" d="m1432.29,272.71c1.65-6.59,3.81-12.96,8.06-18.41.26,7.43-2.98,13.32-8.06,18.41Z"/>
    <path class="cls-2" d="m340.7,552.95c-3.9-4.47-7.8-8.94-11.71-13.4,7.36,1.45,11.2,5.97,11.71,13.4Z"/>
    <path class="cls-2" d="m1016.69,204.95c-5.02-4.45-5.98-11.09-8.95-16.65,6.34,3.74,8.09,9.95,8.95,16.65Z"/>
    <path class="cls-2" d="m759.71,17.52c-5.02,2.96-10.19,5.39-16.28,4.36,5.02-2.97,9.92-6.41,16.28-4.36Z"/>
    <path class="cls-2" d="m1169.88,280.17c-5.45-2.12-12.71-1.94-13.18-10.38,4.18,3.74,10.65,4.55,13.18,10.38Z"/>
    <path class="cls-2" d="m139.91,142.13c6.33,3.6,8.49,9.65,9.61,16.32-3.69-5.15-8.4-9.71-9.61-16.32Z"/>
    <path class="cls-2" d="m973.45,566.59c-7.61-7.03-4.78-10.99,4.98-12.9-3.94,3.42-7.97,6.8-4.98,12.9Z"/>
    <path class="cls-2" d="m986.12,23.8c-5.58-1.76-11.82-1.79-16.36-6.26,6.78-.1,11.91,1.86,16.36,6.26Z"/>
    <path class="cls-2" d="m466.3,596.33c-3.36-5.17-.78-11.04-1.94-16.47,6.04,4.85,3.21,10.75,1.94,16.47Z"/>
    <path class="cls-2" d="m963.74,476.24c-5.8.53-11.36-.39-16.64-2.86,6.05-2,11.68-1.53,16.64,2.86Z"/>
    <path class="cls-2" d="m1383.31,311.67c4.05-4.41,9.66-5.12,15.05-6.35-3.68,5.29-9.22,6.17-15.05,6.35Z"/>
    <path class="cls-2" d="m984.56,548.88c2.26-5.69,3.66-11.79,7.86-16.55.19,6.85-2.26,12.45-7.86,16.55Z"/>
    <path class="cls-2" d="m127.02,117.6c3.88,4.38,7.4,8.97,8.35,14.98-5.49-3.49-7.66-8.82-8.35-14.98Z"/>
    <path class="cls-2" d="m1420.06,580.08c4.96,3.05,8.93,7.06,11.85,12.1-5.88-2.14-9.95-6.06-11.85-12.1Z"/>
    <path class="cls-2" d="m747.7,140.34c-5.59-2.5-10.03-6.07-11.51-12.39,5.01,3.04,8.93,7.1,11.51,12.39Z"/>
    <path class="cls-2" d="m2215.9,206.19c-6.38-1.71-9.85-6.21-11.69-12.25,5.31,2.73,9.54,6.5,11.69,12.25Z"/>
    <path class="cls-2" d="m1961.22,313.43c4.36-3.4,9.13-5.98,14.62-7.06-3.19,5.83-8.09,8.13-14.62,7.06Z"/>
    <path class="cls-2" d="m149.07,90.78c-4.08-4.31-7.48-8.99-8.27-15.11,4.42,4.12,7.92,8.75,8.27,15.11Z"/>
    <path class="cls-2" d="m741.74,312.07c5.18-1.32,9.61.76,13.99,3.06-5.34,2.07-9.97.9-13.99-3.06Z"/>
    <path class="cls-2" d="m255.34,224.01c-2.46,5.27-3.06,11.76-9.47,14.44,2.9-4.98,3.63-11.39,9.47-14.44Z"/>
    <path class="cls-2" d="m181.91,214.15c4.66,3.9,6.98,9.11,8.35,14.86-4.42-4.03-7.76-8.67-8.35-14.86Z"/>
    <path class="cls-2" d="m1008.03,274.53c.81-5.79,1.16-6.44,7.6-14.33-.14,6.05-2.12,11.11-7.6,14.33Z"/>
    <path class="cls-2" d="m276,252.55c.96-6.04,3.57-11.15,8.48-14.96-1.01,6.01-3.97,10.92-8.48,14.96Z"/>
    <path class="cls-2" d="m330.2,526.7c.94-5.3,2.38-10.39,6.34-14.36.95,6.14-2.04,10.54-6.34,14.36Z"/>
    <path class="cls-2" d="m74.74,157.68c4.17,4.23,7.36,9.02,8.57,14.95-4.72-3.92-7.84-8.74-8.57-14.95Z"/>
    <path class="cls-2" d="m286.14,102.64c.95-5.63,4.44-9.91,7.63-14.34.87,6.6-3.02,10.66-7.63,14.34Z"/>
    <path class="cls-2" d="m974.29,157.41c-5.86-.21-10.79-2.5-14.92-6.6,5.86.2,11.21,1.55,14.92,6.6Z"/>
    <path class="cls-2" d="m1407.78,24.28c-5.72.12-9.91-3.09-14.02-6.46,5.49.39,11.24.2,14.02,6.46Z"/>
    <path class="cls-2" d="m326.07,537.88c-3.01-.36-7.43.39-7.31-3.9.09-3.29,4.42-2.77,7.05-3.56-1.15,2.53-.96,5.01.26,7.45Z"/>
    <path class="cls-2" d="m1154.3,76.69c.58-6.12,2.82-10.95,9.55-12.3-2.18,4.87-5.42,8.93-9.55,12.3Z"/>
    <path class="cls-2" d="m159.27,240.67c-4.03-3.17-6.41-7.37-7.63-12.3,3.75,3.35,8.25,6.23,7.63,12.3Z"/>
    <path class="cls-2" d="m1745.18,225.59c3.23,4.54,5.64,9.42,6.14,15.07-3.94-4.25-7.01-8.86-6.14-15.07Z"/>
    <path class="cls-2" d="m117.91,234.12c4.49,3.02,6.48,7.46,7.22,12.62-4.19-3.19-6.79-7.28-7.22-12.62Z"/>
    <path class="cls-2" d="m963.08,49.54c5.2.42,10.1,1.4,12.62,6.8-4.22-2.25-9.8-1.97-12.62-6.8Z"/>
    <path class="cls-2" d="m283.2,175.91c-2.2,4.33-2.68,9.63-7.14,12.69.34-5.38,2.11-9.95,7.14-12.69Z"/>
    <path class="cls-2" d="m293.49,158.1c.02,5.61-3.88,8.96-7.26,12.62.02-5.59,3.28-9.31,7.26-12.62Z"/>
    <path class="cls-2" d="m94.18,59.92c3.81,3.44,6.23,7.65,7.06,12.75-4.2-3.23-7.32-7.05-7.06-12.75Z"/>
    <path class="cls-2" d="m1184.53,95.62c1.61,4.62,1.15,9.78,3.65,14.18-6.73-5.29-7.71-9.08-3.65-14.18Z"/>
    <path class="cls-2" d="m300.2,78.67c.83-5.1,3.13-9.37,7.12-12.69.03,5.58-2.97,9.46-7.12,12.69Z"/>
    <path class="cls-2" d="m337.47,90.53c-2.99-.98-4.73.41-5.82,3.05-.82,1.98-1.17,4.34-3.89,4.75.37-3.92,2.17-7.47,4.55-10.23,3.04-3.52,4.91-1.59,5.16,2.42Z"/>
    <path class="cls-2" d="m999.65,176.4c-4.37-2.22-7.81-5.42-10.26-9.67,5.35,1.18,8.69,4.49,10.26,9.67Z"/>
    <path class="cls-2" d="m115.3,30.63c-5.16-2.29-6.04-7.42-7.91-11.9,5.23,2.24,6.11,7.37,7.91,11.9Z"/>
    <path class="cls-2" d="m984.23,211.92c2.67,3.7,5.32,7.41,3.83,12.39-4.37-3.17-3.71-7.9-3.83-12.39Z"/>
    <path class="cls-2" d="m315.92,478.06c-4.26-1-8.5-2.04-12.19-4.54,5.6-2.62,9.29-.1,12.19,4.54Z"/>
    <path class="cls-2" d="m192.38,231.82c3.4,3.66,5.36,8.11,7,12.74-5.31-2.61-6.87-7.29-7-12.74Z"/>
    <path class="cls-2" d="m149.55,158.48c5.04,2.52,5.9,7.64,7.61,12.23-4.47-2.87-7.13-6.88-7.61-12.23Z"/>
    <path class="cls-2" d="m286.15,234.66c.9-5.09,2.88-9.55,7.34-12.56-.8,5.15-2.95,9.5-7.34,12.56Z"/>
    <path class="cls-2" d="m1365.78,315c3.66-2.32,7.38-4.43,11.97-2.93-3.52,2.91-7.12,5.47-11.97,2.93Z"/>
    <path class="cls-2" d="m269.26,199.95c-1.76,4.58-2.99,9.47-7.25,12.62.85-5.1,2.04-10.02,7.25-12.62Z"/>
    <path class="cls-2" d="m173.45,200.66c4.74,2.62,6.15,7.39,7.78,12.02-5.23-2.3-5.75-7.65-7.78-12.02Z"/>
    <path class="cls-2" d="m1160.43,131.44c-4.98-3.02-7.6-7.16-7.06-11.13,4.29,2.48,5.86,6.69,7.06,11.13Z"/>
    <path class="cls-2" d="m125.14,182.74c-3.73-3.51-6.34-7.62-6.9-12.84,4.63,3.03,6.32,7.63,6.9,12.84Z"/>
    <path class="cls-2" d="m146.36,283.82c3.42,3.66,6.05,7.76,7.02,12.77-4.44-3.1-6.87-7.3-7.02-12.77Z"/>
    <path class="cls-2" d="m307.43,134.06c-.52,5.27-3.29,9.29-7.12,12.71.21-5.45,3.24-9.32,7.12-12.71Z"/>
    <path class="cls-2" d="m983.12,584.81c-3.97-3.43-6.12-7.8-6.63-12.99,4.2,3.31,6.25,7.73,6.63,12.99Z"/>
    <path class="cls-2" d="m117.67,102.33c5.37,2.42,5.69,7.84,7.4,12.43-5.08-2.59-5.64-7.87-7.4-12.43Z"/>
    <path class="cls-2" d="m139.3,206.64c-3.78-3.34-6.31-7.46-7.58-12.35,5.01,2.59,7,7.03,7.58,12.35Z"/>
    <path class="cls-2" d="m1183.75,146.66c-7.38.52-9.06-.33-10.44-5.3,4.58-.41,8.05,1.38,10.44,5.3Z"/>
    <path class="cls-2" d="m945.13,245.39c2.2-3.63,3.25-8.32,8.42-9.26-1.22,4.53-1.68,9.75-8.42,9.26Z"/>
    <path class="cls-2" d="m175.5,138.48c-3.87-3.42-6.22-7.62-6.5-12.86,4.32,3.2,5.77,7.84,6.5,12.86Z"/>
    <path class="cls-2" d="m2365.79,226.31c4.27,2.08,6.48,5.79,7.9,10.1-4.86-1.62-6.89-5.46-7.9-10.1Z"/>
    <path class="cls-2" d="m953.74,150.43c-4.04,1.9-7.43,1.25-10-2.57,4.05-1.93,6.83,1.07,10,2.57Z"/>
    <path class="cls-2" d="m242.74,245.73c-.62,4.7-3.16,8.06-7.24,10.33,1.33-4.2,2.91-8.23,7.24-10.33Z"/>
    <path class="cls-2" d="m172.42,263.01c-3.92-2.5-5.87-6.25-6.74-10.67,3.86,2.54,6.77,5.68,6.74,10.67Z"/>
    <path class="cls-2" d="m1445.37,600.87c4.43,1.22,9.73.19,12.8,4.94-4.98.21-9.89.23-12.8-4.94Z"/>
    <path class="cls-2" d="m235.78,188.37c.74-4.56,3.08-8.1,6.84-10.74.18,5.15-3.05,8.12-6.84,10.74Z"/>
    <path class="cls-2" d="m333.58,494.33c-2.47-3.09-5.28-5.98-5.58-10.25,3.87,2.32,6.81,5.15,5.58,10.25Z"/>
    <path class="cls-2" d="m95.24,130.67c-3.55-2.83-6.43-6.07-6.58-10.94,3.64,2.78,6.55,6,6.58,10.94Z"/>
    <path class="cls-2" d="m250.27,164.71c.82-4.43,2.27-8.5,6.32-11.1-.05,4.87-2.39,8.43-6.32,11.1Z"/>
    <path class="cls-2" d="m1407.85,558.26c3.64,3.33,5.27,7.54,5.46,12.39-3.22-3.51-6.13-7.16-5.46-12.39Z"/>
    <path class="cls-2" d="m264.21,140.68c.81-4.45,2.23-8.54,6.37-11.07-.35,4.71-2.1,8.61-6.37,11.07Z"/>
    <path class="cls-2" d="m1420.34,31.37c-5.41.66-8.78-1.99-10.86-6.71,5.2-.31,8.04,3.18,10.86,6.71Z"/>
    <path class="cls-2" d="m1869.78,3.92c-2.97,2.24-6.04,4.11-9.99,2.65,2.81-2.84,5.78-5.11,9.99-2.65Z"/>
    <path class="cls-2" d="m2355.34,266.7c-3.79-1.78-6.16-4.68-6.97-8.81,4.12,1.52,6.41,4.48,6.97,8.81Z"/>
    <path class="cls-2" d="m2318.17,273.99c3.83,1.72,6.32,4.53,7.13,8.71-4.01-1.56-6.69-4.22-7.13-8.71Z"/>
    <path class="cls-2" d="m1931.78,6.42c-3.96,1.53-7.03-.38-10.01-2.62,4.14-2.22,7.25-.45,10.01,2.62Z"/>
    <path class="cls-2" d="m1782.11,48.68c-1.11,4.03-3.83,6.58-7.56,8.19-.13-5.18,2.89-7.45,7.56-8.19Z"/>
    <path class="cls-2" d="m1852.36,7.22c-3.06,3.33-6.62,5.16-11.26,3.81,3.38-2.36,6.68-4.98,11.26-3.81Z"/>
    <path class="cls-2" d="m2278.08,126.05c4.23,1.36,5.72,5.01,7.23,8.65-3.95-1.59-6.7-4.19-7.23-8.65Z"/>
    <path class="cls-2" d="m2225.65,218.45c-4.8-.96-7.37-3.65-6.83-8.77,3.72,1.79,6.1,4.64,6.83,8.77Z"/>
    <path class="cls-2" d="m1481.14,501.5c4.36-.56,7.97,1.18,11.32,3.69-4.64,1.43-8.42.22-11.32-3.69Z"/>
    <path class="cls-2" d="m2345.77,204.33c4.02,1.44,6.68,4.09,7.49,8.39-3.77-1.66-6.65-4.11-7.49-8.39Z"/>
    <path class="cls-2" d="m2241.48,32.57c-4.23-1.29-6.2-4.58-7.46-8.48,4.21,1.31,6.54,4.28,7.46,8.48Z"/>
    <path class="cls-2" d="m961.26,311.62c2.84-3.85,6.64-4.94,11.19-3.91-3.3,2.54-6.83,4.42-11.19,3.91Z"/>
    <path class="cls-2" d="m1790.43,41.3c-1.66,3.68-4.24,6.31-8.3,7.26.56-4.95,3.24-7.46,8.3-7.26Z"/>
    <path class="cls-2" d="m1181.73,17.55c-3.42,1.45-5.87,5.11-10.22,4.42,1.97-4.79,5.27-6.5,10.22-4.42Z"/>
    <path class="cls-2" d="m1493.96,572.55c-2.21,4.67-6.64,4.46-10.77,4.87,2.22-4.65,6.91-3.86,10.77-4.87Z"/>
    <path class="cls-2" d="m1273.11,599.52c4.12-.5,6.7,1.5,8.28,5.11-3.42-.63-6.52-1.79-8.28-5.11Z"/>
    <path class="cls-2" d="m956.23,589.95c2.84,2.34,4.29,5.35,4.37,9.02-3.55-2-5.06-4.97-4.37-9.02Z"/>
    <path class="cls-2" d="m1443.92,80.3c-2.29-2.28-3.72-4.76-1.94-8.02,3.59,1.96,4.11,4.67,1.94,8.02Z"/>
    <path class="cls-2" d="m211.36,168.05c-1.1,3.85-1.43,8.08-5.21,10.61.23-4.28,1.41-8.09,5.21-10.61Z"/>
    <path class="cls-2" d="m729.22,307.06c3.76-.05,7.22.52,9.13,4.35-3.98.51-6.93-1.13-9.13-4.35Z"/>
    <path class="cls-2" d="m947.74,182.29c4.07-2.32,6.48-.02,8.61,3.08-3.67,1.21-6.06-1.17-8.61-3.08Z"/>
    <path class="cls-2" d="m235.45,256.12c-.55,4.13-1.26,8.18-5.28,10.58.44-4.18,1.45-8.08,5.28-10.58Z"/>
    <path class="cls-2" d="m978.28,201.89c3.9,1.62,5.12,4.81,5.09,8.72-3.52-1.85-4.86-4.96-5.09-8.72Z"/>
    <path class="cls-2" d="m168.22,189.91c4.35,2.28,4.71,6.47,5.12,10.64-3.05-2.9-5.23-6.22-5.12-10.64Z"/>
    <path class="cls-2" d="m1443.97,478.55c-1.79,3.49-5.25,4.28-8.57,5.29,1.21-4.44,4.72-5.14,8.57-5.29Z"/>
    <path class="cls-2" d="m1156.33,269.32c-5.48-.08-5.23-3.96-5.12-7.74,3.51,1.39,4.59,4.39,5.12,7.74Z"/>
    <path class="cls-2" d="m135.69,266.34c3.63,2.41,5.33,5.93,5.83,10.14-3.5-2.48-5.14-6.04-5.83-10.14Z"/>
    <path class="cls-2" d="m161.31,112.61c-3.19-2.06-4.7-5.07-4.95-8.78,3.74,1.75,5.13,4.83,4.95,8.78Z"/>
    <path class="cls-2" d="m1020.21,70.29c-1.93-2.32-4.49-4.43-2.64-8,2.84,2.02,4.81,4.32,2.64,8Z"/>
    <path class="cls-2" d="m1502.12,477.88c-3.18-.25-6.71.64-8.9-2.78,3.34-.27,6.81-.97,8.9,2.78Z"/>
    <path class="cls-2" d="m978.17,481.75c-3.44-.69-7.24-.67-8.98-4.65,3.76.07,7.27.63,8.98,4.65Z"/>
    <path class="cls-2" d="m325.36,104.01c-.55,3.62-1.87,6.75-5.32,8.56.12-3.88,1.54-6.95,5.32-8.56Z"/>
    <path class="cls-2" d="m1167.75,22.05c-2.31,2.18-4.25,5.12-8.17,4.02,2.1-2.6,3.44-6.76,8.17-4.02Z"/>
    <path class="cls-2" d="m129.85,256.19c3.19,1.91,5.76,4.23,5.42,8.42-2.79-2.17-7-3.43-5.42-8.42Z"/>
    <path class="cls-2" d="m1118.19,268.01c2.39,2.55,5.57,4.75,3.97,9.05-3.26-2.17-5.59-4.75-3.97-9.05Z"/>
    <path class="cls-2" d="m165.07,250.78c-4.03-1.62-4.5-5.2-4.89-8.84,3.73,1.78,3.74,5.63,4.89,8.84Z"/>
    <path class="cls-2" d="m81.27,106.65c-3.95-1.38-4.9-4.77-5.57-8.35,3.52,1.67,4.95,4.74,5.57,8.35Z"/>
    <path class="cls-2" d="m989.21,605.57c1.5-2.32.94-4.8.58-7.27,2.65.53,3.63,2.19,3.16,4.77-.38,2.08-1.2,3.6-3.74,2.5Z"/>
    <path class="cls-2" d="m979.74,302.31c2.03-3.06,4.15-5.99,8.53-5.25-1.61,3.75-3.99,6.26-8.53,5.25Z"/>
    <path class="cls-2" d="m311.96,58.5c.44-3.68,1.51-6.97,5.29-8.59-.37,3.72-1.43,7.02-5.29,8.59Z"/>
    <path class="cls-2" d="m1426.16,282.63c.32-3.73,1.87-6.73,5.2-8.65-.05,3.89-1.34,7.04-5.2,8.65Z"/>
    <path class="cls-2" d="m278.95,49.77c.39,4.13-2.53,6.27-5.14,8.6.29-3.72,1.44-6.92,5.14-8.6Z"/>
    <path class="cls-2" d="m732.18,267.71c-5.29-1.37-3.41-6.07-4.4-9.44,4.12,1.91,2.99,6.27,4.4,9.44Z"/>
    <path class="cls-2" d="m1501.57,602.13c1.32-4.21,4.96-4.73,8.53-5.37-1.14,4.5-5.49,3.9-8.53,5.37Z"/>
    <path class="cls-2" d="m1737.31,126.31c2.64,3.41-.31,5.54-1.82,8-1.63-3.18-1.53-5.96,1.82-8Z"/>
    <path class="cls-2" d="m244.48,174.83c.42-3.61.9-7.18,4.85-8.86-.94,3.32-.89,7.19-4.85,8.86Z"/>
    <path class="cls-2" d="m319.25,113.93c-1.59,2.97-1.16,7.1-5,8.79.35-3.68.49-7.48,5-8.79Z"/>
    <path class="cls-2" d="m125.25,48.67c-3.19-1.89-4.63-4.95-5.58-8.34,4.11,1.27,5.63,4.28,5.58,8.34Z"/>
    <path class="cls-2" d="m151.09,226.77c-3.6-1.89-4.79-5.07-4.79-8.9,4,1.67,3.88,5.56,4.79,8.9Z"/>
    <path class="cls-2" d="m1752.61,87.63c1.24,3.61-1.85,5.17-3.52,7.39-.83-3.42-.65-6.36,3.52-7.39Z"/>
    <path class="cls-2" d="m284.86,39.76c.65,3.46-2.14,5.08-3.88,7.25-1.47-3.9,1.12-5.62,3.88-7.25Z"/>
    <path class="cls-2" d="m247.84,300.42c.11-3.37,2.53-5.04,4.93-6.73,1.21,4.33-2.13,5.33-4.93,6.73Z"/>
    <path class="cls-2" d="m312.4,125.63c1.15,3.8-1.62,5.38-4.04,7.17-.32-3.33,1.26-5.58,4.04-7.17Z"/>
    <path class="cls-2" d="m2269.52,166.56c-3.17-1.07-5.18-3.06-5.31-6.58,3.35.92,5.21,3.04,5.31,6.58Z"/>
    <path class="cls-2" d="m1404.36,161.31c-3.46.75-5.22-1.82-7.3-3.76,3.89-1.57,5.54,1.2,7.3,3.76Z"/>
    <path class="cls-2" d="m1495.17,507.28c3.52-.8,4.82,1.99,6.56,4.06-3.63.99-5.01-1.68-6.56-4.06Z"/>
    <path class="cls-2" d="m261.13,213.88c.28,3.33-1.66,5.39-4.12,7.15-1.52-4.05,1.6-5.42,4.12-7.15Z"/>
    <path class="cls-2" d="m112.84,160.87c-2.48-1.77-5.05-3.48-4.04-7.21,2.47,1.77,5.02,3.5,4.04,7.21Z"/>
    <path class="cls-2" d="m2205.42,536.34c-1.63-2.98.22-4.56,2.41-6.01,2.16,3.19-.22,4.56-2.41,6.01Z"/>
    <path class="cls-2" d="m2200.2,546.66c-.07-3.36,1.99-5.34,4.57-6.97.8,3.85-1.58,5.61-4.57,6.97Z"/>
    <path class="cls-2" d="m2247.4,40.64c-3.06-1.25-5.12-3.23-4.93-6.83,3.35,1.05,4.3,3.83,4.93,6.83Z"/>
    <path class="cls-2" d="m2331.45,238.62c-3.17-1.07-5-3.22-5.33-6.59,3.52.78,4.71,3.45,5.33,6.59Z"/>
    <path class="cls-2" d="m998.07,31.88c-3.33-.29-5.2-2.47-6.67-5.17,3.92-.46,5.51,2.07,6.67,5.17Z"/>
    <path class="cls-2" d="m2331.27,136.72c-2.72-1.43-4.75-3.41-5.26-6.6,3.65.69,4.97,3.24,5.26,6.6Z"/>
    <path class="cls-2" d="m988.18,165.71c-3.29-.1-5.28-2.14-6.98-4.63,3.95-.91,5.7,1.5,6.98,4.63Z"/>
    <path class="cls-2" d="m1514.25,502.71c.12-3.49,1.98-5.6,5.22-6.62-.31,3.33-1.94,5.63-5.22,6.62Z"/>
    <path class="cls-2" d="m2231.9,174.2c3.13,1.05,5.13,3.05,5.44,6.47-3.4-.82-5.42-2.8-5.44-6.47Z"/>
    <path class="cls-2" d="m2320.23,173.95c2.95,1.28,4.85,3.38,5.14,6.7-3.29-1.02-5.44-2.92-5.14-6.7Z"/>
    <path class="cls-2" d="m1259.8,488.37c-.51,3.55-3.27,4.77-6.11,5.9.32-3.75,2.77-5.29,6.11-5.9Z"/>
    <path class="cls-2" d="m2255.59,202.53c2.97,1.04,5.77,2.24,5.87,6.06-3.11-.91-5.45-2.55-5.87-6.06Z"/>
    <path class="cls-2" d="m1512.24,483.65c-3.32.38-5.37-1.6-7.23-3.92,3.85-1.35,5.74.91,7.23,3.92Z"/>
    <path class="cls-2" d="m1503.97,558.34c1.8,3.54-1.04,4.93-3.1,6.68-1.36-3.34.92-4.99,3.1-6.68Z"/>
    <path class="cls-2" d="m2253.97,98.13c3.23.99,5.09,3.11,5.4,6.52-3.34-.9-5.38-2.87-5.4-6.52Z"/>
    <path class="cls-2" d="m1529.11,571c-1.37-3.19.67-4.95,2.8-6.67,2.08,3.49-.34,5.09-2.8,6.67Z"/>
    <path class="cls-2" d="m2289.62,88.46c-3.11-1.12-5.04-3.18-5.25-6.6,3.38.91,5.36,2.92,5.25,6.6Z"/>
    <path class="cls-2" d="m2247.27,140.72c-2.91-1.15-5.19-2.87-5.66-6.23,2.63,1.4,6.13,2.01,5.66,6.23Z"/>
    <path class="cls-2" d="m2208.08,146.05c3.13,1.16,4.94,3.31,5.05,6.74-3.36-.99-5.27-3.07-5.05-6.74Z"/>
    <path class="cls-2" d="m733.11,74.97c-1.07-3.86,1.3-5.6,4.29-6.96.17,3.31-1.87,5.25-4.29,6.96Z"/>
    <path class="cls-2" d="m1764.44,261.81c3.25.96,5.21,2.97,5.35,6.49-3.67-.61-5.92-2.39-5.35-6.49Z"/>
    <path class="cls-2" d="m762.4,146.82c-3.15,1.64-4.71-.97-6.67-2.5,3.48-2.51,4.91.44,6.67,2.5Z"/>
    <path class="cls-2" d="m266.84,268.94c-1.14-3.15,1.42-4.66,2.94-6.64,2.36,3.69-.67,4.99-2.94,6.64Z"/>
    <path class="cls-2" d="m2219.78,108.32c-3.24-.86-5.22-2.87-5.73-6.24,3.32.79,5.31,2.79,5.73,6.24Z"/>
    <path class="cls-2" d="m2293.37,194.66c-2.92-1.32-5.36-2.99-5.11-6.72,3.03,1.23,5.07,3.21,5.11,6.72Z"/>
    <path class="cls-2" d="m979.26,259.94c-.21,3.52-2.26,5.46-5.49,6.4.35-3.4,2.33-5.41,5.49-6.4Z"/>
    <path class="cls-2" d="m2229.68,70.41c3.07,1.06,5.56,2.61,5.44,6.38-3.18-.96-5.13-2.97-5.44-6.38Z"/>
    <path class="cls-2" d="m2205.47,92.58c-3.16-1.18-5.12-3.21-4.86-6.83,3.11,1.22,4.93,3.36,4.86,6.83Z"/>
    <path class="cls-2" d="m1742.4,109.64c1.32,3.04,1.14,5.54-2.42,6.84-.5-2.75.36-5.01,2.42-6.84Z"/>
    <path class="cls-2" d="m1019.67,220.31c-3.11-1.23-2.21-3.72-1.9-6.03,3.67,1.05,5.22,2.77,1.9,6.03Z"/>
    <path class="cls-2" d="m2172.17,592.02c3.18,1.22,3.15,3.96,3.17,6.68-3.63-1-3.34-3.87-3.17-6.68Z"/>
    <path class="cls-2" d="m163.62,182.41c4.13.34,3.23,3.69,3.71,6.21-3.39-.78-2.94-3.86-3.71-6.21Z"/>
    <path class="cls-2" d="m237.47,122.11c-.89,2.88.27,6.76-3.94,8.01.88-2.88.27-6.5,3.94-8.01Z"/>
    <path class="cls-2" d="m205.23,179.93c.13,2.21-.69,3.9-3.09,3.76-1.92-.12-2.44-1.75-2.27-3.53,1.78-.08,3.57-.15,5.35-.23Z"/>
    <path class="cls-2" d="m1462.41,575.11c-2.9,1.01-5.58,1.27-7.09-2.2,2.68-.28,5.25-.21,7.09,2.2Z"/>
    <path class="cls-2" d="m265.3,73.97c-.16,2.68.12,5.59-3.42,6.49.33-2.59-.17-5.61,3.42-6.49Z"/>
    <path class="cls-2" d="m1457.1,505.21c1.86-2.55,4.41-2.73,7.19-2.09-1.6,3.44-4.31,3.05-7.19,2.09Z"/>
    <path class="cls-2" d="m1327.64,604.21c1.52-2.34,3.25-4.29,6.47-3.42-.99,3.34-3.74,3.36-6.47,3.42Z"/>
    <path class="cls-2" d="m70.99,88.83c-1.14-.18-2.27-.36-3.41-.54-1.7-1.77-.58-3.19,1.06-3.32,2.55-.2,3.07,1.63,2.34,3.85Z"/>
    <path class="cls-2" d="m336.56,502.3c-2.36-1.4-2.84-3.62-2.66-6.12,3.13,1.06,4.85,2.74,2.66,6.12Z"/>
    <path class="cls-2" d="m107.61,84.41c4.15.33,3.32,3.63,3.71,6.21-3.54-.69-3.12-3.75-3.71-6.21Z"/>
    <path class="cls-2" d="m1519.53,496.05c0-1.83,0-3.66.01-5.49,1.39.6,3.25.91,3.19,2.84-.05,1.82-1.47,2.56-3.2,2.64Z"/>
    <path class="cls-2" d="m160.2,175.91c3.55.9,2.02,4.46,3.4,6.49-3.8-.77-2.98-3.95-3.4-6.49Z"/>
    <path class="cls-2" d="m297.52,150.14c-.6,2.42-.43,5.2-3.06,6.7-.05-2.72-.46-5.61,3.06-6.7Z"/>
    <path class="cls-2" d="m1754.09,246.04c3.63.87,2.46,4.23,3.36,6.51-3.05-1.17-3.28-3.8-3.36-6.51Z"/>
    <path class="cls-2" d="m104.25,77.87c3.4,1.01,2.22,4.36,3.34,6.53-3.83-.79-2.99-3.96-3.34-6.53Z"/>
    <path class="cls-2" d="m139.58,74.42c-3.44-.67-3.36-3.58-3.89-6.1,2.8,1.08,3.32,3.61,3.89,6.1Z"/>
    <path class="cls-2" d="m983.33,252.03c-.21,2.62.41,5.63-3.16,6.64.01-2.71.08-5.39,3.16-6.64Z"/>
    <path class="cls-2" d="m1153.53,118.49c-1.78-.46-3.72-.86-4.16-2.99-.21-1.04.87-1.29,1.77-1.36,2.44.54,2.57,2.36,2.39,4.34Z"/>
    <path class="cls-2" d="m107.9,152.12c-1.95-1.61-4.29-2.97-3.86-6.09,3.03.92,3.27,3.62,3.86,6.09Z"/>
    <path class="cls-2" d="m1432.31,45.53c-4.14-.04-4.16-2.77-3.76-5.77,2.95.82,3.65,3.1,3.76,5.77Z"/>
    <path class="cls-2" d="m71.57,226.45c-1.42-.05-2.84-.1-4.26-.15-1.62-1.63-.92-3.29.83-3.5,2.05-.24,3.32,1.44,3.43,3.65Z"/>
    <path class="cls-2" d="m2166.56,581.83c2.73,1.46,2.05,4.44,2.99,6.7-3.06-1.31-3.78-3.67-2.99-6.7Z"/>
    <path class="cls-2" d="m219.24,153.99c-.79,2.35.96,5.74-2.83,6.84.11-2.63-.47-5.54,2.83-6.84Z"/>
    <path class="cls-2" d="m689.22,605.6c.73-2.24,2.54-2.9,4.63-3.14-.22,2.99-1.73,4.09-4.63,3.14Z"/>
    <path class="cls-2" d="m2247.75,90.34c2.52.34,3.7,1.79,3.58,4.32-2.35-.48-3.52-1.94-3.58-4.32Z"/>
    <path class="cls-2" d="m141.57,276.49c3.25,0,3.95,1.68,2.91,4.48-1.82-.94-2.57-2.58-2.91-4.48Z"/>
    <path class="cls-2" d="m254.31,290.75c-.47-1.83.51-3.16,1.58-4.45,1.89,2.34,1.56,3.89-1.58,4.45Z"/>
    <path class="cls-2" d="m1130.34,289.86c2.32.4,3.56,1.76,3.71,4.11-3.03.24-3.97-1.39-3.71-4.11Z"/>
    <path class="cls-2" d="m2039.36,88.66c-2.72-.68-3.31-2.47-2.56-4.95,2.31.9,2.27,3.01,2.56,4.95Z"/>
    <path class="cls-2" d="m2045.19,100.75c-2.73-.93-2.73-2.9-1.98-5.16,2.24,1.11,2.65,2.93,1.98,5.16Z"/>
    <path class="cls-2" d="m214.5,163.66c.73,2.66.11,4.37-3.02,4.34.17-2.03,1.1-3.53,3.02-4.34Z"/>
    <path class="cls-2" d="m1795.7,294.4c2.81-.82,3.94.85,4.64,3.15-2.85.88-4.15-.54-4.64-3.15Z"/>
    <path class="cls-2" d="m262.3,276.74c-.16-2.3.44-4.14,2.95-4.81.46,2.49-.54,4.08-2.95,4.81Z"/>
    <path class="cls-2" d="m1407.53,300.05c.39-2.57,2.08-3.46,4.46-3.48-.4,2.55-1.87,3.73-4.46,3.48Z"/>
    <path class="cls-2" d="m1143.79,302.27c2.48-.61,4.16.12,4.7,2.78-2.94,1.4-3.53-1.18-4.7-2.78Z"/>
    <path class="cls-2" d="m1192.15,84.82c-.73,2.11-1.97,3.55-4.42,3.45.31-2.65,1.51-4.15,4.42-3.45Z"/>
    <path class="cls-2" d="m1746.33,99.63c.9,2.22.84,4.14-1.67,5.28-.73-2.17-.04-3.89,1.67-5.28Z"/>
    <path class="cls-2" d="m2131.26,605.57c.53-1.72,1.83-2.62,3.44-3.2,1.01,3.38-.38,4.19-3.44,3.2Z"/>
    <path class="cls-2" d="m1394.19,268.98c-.59,2.66-2.84,2.51-4.81,2.83.67-2.52,2.52-3.05,4.81-2.83Z"/>
    <path class="cls-2" d="m971.78,268.34c-.44,2.42-1.68,3.87-4.36,3.53.61-2.22,1.93-3.56,4.36-3.53Z"/>
    <path class="cls-2" d="m696.24,267.93c2.14,1.08,4.11,2.19.89,4.36-2.32-1.04-1.77-2.67-.89-4.36Z"/>
    <path class="cls-2" d="m1821.38,310.9c1.85-.49,3.43-.23,4.41,1.63-2.09,1.14-3.73,1.04-4.41-1.63Z"/>
    <path class="cls-2" d="m161.76,312.27c1.14,1.19,3.23,1.03,3.94,2.81-2.93,1.32-4.28.44-3.94-2.81Z"/>
    <path class="cls-2" d="m945.75,314.74c1.23-1.84,2.77-2.29,4.7-1.06-1.11,2.35-2.57,3.19-4.7,1.06Z"/>
    <path class="cls-2" d="m1835.69,316.41c1.87-.18,3.28.49,4.1,2.23-2.71,1.73-3.49-.1-4.1-2.23Z"/>
    <path class="cls-2" d="m1951.78,318.15c.57-2.62,2.32-2.22,4.15-1.64-1.26.85-1.45,4.44-4.15,1.64Z"/>
    <path class="cls-2" d="m1943.46,321.92c.12-3.62,2.23-3.64,4.87-2.7-.91,2.19-2.28,3.55-4.87,2.7Z"/>
    <path class="cls-2" d="m1845.4,320.82c1.75-.42,3.33-.3,4.38,1.43-2.27,2.01-3.65,1.28-4.38-1.43Z"/>
    <path class="cls-2" d="m1857.25,323.13c2.42-.91,4.29-.54,5.15,2.2-2.75,1.67-4.7,1.5-5.15-2.2Z"/>
    <path class="cls-2" d="m260.89,81.76c.34,2.33.02,4.29-2.72,4.91-.41-2.37.48-4.01,2.72-4.91Z"/>
    <path class="cls-2" d="m2198.44,83.21c-1.5.41-3,.82-4.5,1.22-.75-1.68-.69-3.26,1.32-3.8,1.95-.52,2.92.72,3.19,2.57Z"/>
    <path class="cls-2" d="m176.94,270.86c-2.15-.88-2.82-2.67-2.93-4.79,2.74.52,3.56,2.22,2.93,4.79Z"/>
    <path class="cls-2" d="m1759.39,76c.85,3.07-2.25,3-3.5,4.4-.77-3.01,1.44-3.64,3.5-4.4Z"/>
    <path class="cls-2" d="m1759.86,256.23c2.09.77,3.43,2.1,3.43,4.47-2.32-.59-3.95-1.7-3.43-4.47Z"/>
    <path class="cls-2" d="m2031.39,74.65c-2.63-.27-2.87-2.51-3.6-4.35,3.39-.36,2.92,2.47,3.6,4.35Z"/>
    <path class="cls-2" d="m88.76,256.9c-1.85-1.13-2.8-2.73-2.61-4.94,2.81.62,3.68,2.27,2.61,4.94Z"/>
    <path class="cls-2" d="m2295.78,248.32c1.86.88,4.08,1.46,3.64,4.29-2.33-.48-4.06-1.48-3.64-4.29Z"/>
    <path class="cls-2" d="m268.8,67.71c.41,2.31-.14,4.13-2.55,5-.54-2.38-.05-4.23,2.55-5Z"/>
    <path class="cls-2" d="m1017.88,250.42c-.27-1.69-.92-3.54,1.63-4.11q2.22,2.35-1.63,4.11Z"/>
    <path class="cls-2" d="m2049.45,110.59c-2.91-.7-3.35-2.47-2.16-4.95,1.39,1.36,2.75,2.73,2.16,4.95Z"/>
    <path class="cls-2" d="m465.61,478.34c-2.59-.29-2.29-2.1-2.03-3.88,1.6.81,5.29.53,2.03,3.88Z"/>
    <path class="cls-2" d="m980.17,59.94c2.73.54,3.35,2.36,2.94,4.81-2.5-.68-2.93-2.62-2.94-4.81Z"/>
    <path class="cls-2" d="m83.77,112.3c-1.12-1.19-2.3-2.36-1.78-4.24,2.92.44,3.56,1.83,1.78,4.24Z"/>
    <path class="cls-2" d="m307.73,64.31c-.33-2.58,1-3.92,3.35-4.51.72,2.87-2.01,3.18-3.35,4.51Z"/>
    <path class="cls-2" d="m273.39,60.03c-.33,2.14-1.66,3.49-3.53,4.39-.59-2.88,1.23-3.83,3.53-4.39Z"/>
    <path class="cls-2" d="m133.61,64.3c-1.32-1.1-2.14-2.4-1.66-4.21,3.06.42,3.31,1.94,1.66,4.21Z"/>
    <path class="cls-2" d="m1167.96,60.48c-.22-3.19,1.41-4.08,4.27-3.45-.55,2.24-1.85,3.54-4.27,3.45Z"/>
    <path class="cls-2" d="m745.53,60.07c.7-2.31,2.17-3.48,4.65-3.15-.57,2.5-2.09,3.6-4.65,3.15Z"/>
    <path class="cls-2" d="m325.97,482.04c-2.17.07-3.92-.62-4.9-2.71,2.59-.83,4.4-.24,4.9,2.71Z"/>
    <path class="cls-2" d="m1274.06,478.68c-.45,2.69-2.38,3.2-4.68,3.17.23-3.02,2.83-2.53,4.68-3.17Z"/>
    <path class="cls-2" d="m2105.89,602.24c2.14.26,3.52,1.51,4.39,3.4-3.23,1.15-4.35-.43-4.39-3.4Z"/>
    <path class="cls-2" d="m2263.7,58.39c-2.18-.64-3.73-1.8-3.59-4.36,2.46.41,4.16,1.44,3.59,4.36Z"/>
    <path class="cls-2" d="m1432.03,486.65c-.71,2.23-2.11,3.5-4.57,3.33.44-2.6,1.97-3.69,4.57-3.33Z"/>
    <path class="cls-2" d="m2038.3,244.7c-.22-2.12.45-3.85,2.21-5.11.94,2.43.86,4.41-2.21,5.11Z"/>
    <path class="cls-2" d="m2203.37,492.68c-2.29-.4-3.5-1.83-3.83-4.07,1.9.78,4.59.8,3.83,4.07Z"/>
    <path class="cls-2" d="m1423.41,494.04c.37,2.59-1.02,3.91-3.32,4.57-.31-2.55.86-4.03,3.32-4.57Z"/>
    <path class="cls-2" d="m987.8,240.3c1.93,2.43.68,3.59-1.72,4.29-.87-2.01-.42-3.49,1.72-4.29Z"/>
    <path class="cls-2" d="m1789.72,500.28c-.13-2.88,1.25-4.17,4.11-3.89.06,2.81-1.18,4.24-4.11,3.89Z"/>
    <path class="cls-2" d="m1853.22,605.5c.75-2.05,2.45-2.85,4.4-3.31.18,3.3-1.31,4.36-4.4,3.31Z"/>
    <path class="cls-2" d="m992.23,502.32c-1.74-1.07-2.14-2.64-1.71-4.52,2.75.69,3.82,2,1.71,4.52Z"/>
    <path class="cls-2" d="m90.52,53.73c2.39.84,2.87,2.71,2.69,4.95-2.57-.74-3.12-2.58-2.69-4.95Z"/>
    <path class="cls-2" d="m1386.21,49.89c2.98-.45,4.47.66,4,3.82-3.44.93-3.89-1.27-4-3.82Z"/>
    <path class="cls-2" d="m278.13,116.62c-.57-1.88.64-3.07,1.68-4.33,1.76,2.35,1.26,3.81-1.68,4.33Z"/>
    <path class="cls-2" d="m1191.51,112.6c1.96-.21,3.48.37,4.25,2.33-2.8,1.74-3.62-.12-4.25-2.33Z"/>
    <path class="cls-2" d="m2281.48,232.7c1.97.6,4.24.88,4.15,3.76-2.32-.22-3.85-1.31-4.15-3.76Z"/>
    <path class="cls-2" d="m2313.5,116.55c-2.13-.81-3.67-2.03-3.2-4.64,2.54.53,3.79,1.95,3.2,4.64Z"/>
    <path class="cls-2" d="m1417.41,502.05c.11,2.4-.79,4.08-3.3,4.58-.43-2.63.84-4.04,3.3-4.58Z"/>
    <path class="cls-2" d="m2043.39,235c-1.15-2.39-.8-4.19,1.99-5.03.64,2.19-.18,3.8-1.99,5.03Z"/>
    <path class="cls-2" d="m74.73,232.94c-3.17-.45-3.56-2.35-2.58-4.96,2.66.72,3.72,2.27,2.58,4.96Z"/>
    <path class="cls-2" d="m2227.52,118.56c-2.76-.4-3.32-2.3-3.18-4.67,2.91.3,2.51,2.85,3.18,4.67Z"/>
    <path class="cls-2" d="m74.33,95c-1.77-1.1-2.9-2.54-2.55-4.77,2.69.6,3.65,2.14,2.55,4.77Z"/>
    <path class="cls-2" d="m1183.43,51.89c.85-2.52,2.39-3.56,4.99-2.33-1.05,2.1-2.5,3.33-4.99,2.33Z"/>
    <path class="cls-2" d="m1243.06,511.84c.42,1.9-.27,3.36-1.78,4.5-1.72-2.42-.9-3.83,1.78-4.5Z"/>
    <path class="cls-2" d="m1369.36,518.67c-2.31-.64-3.88-1.82-3.32-4.55,2.23.7,4.1,1.66,3.32,4.55Z"/>
    <path class="cls-2" d="m761.35,51.8c.31-3.62,2.29-3.77,5-2.42-1.08,2.03-2.45,3.44-5,2.42Z"/>
    <path class="cls-2" d="m1240.34,519.61c1.29,2.61-.28,3.88-2.31,4.95-1.24-2.59-.91-4.44,2.31-4.95Z"/>
    <path class="cls-2" d="m241.43,116.06c-.14,2.26-1.12,3.87-3.43,4.48-.75-2.94,1.13-3.87,3.43-4.48Z"/>
    <path class="cls-2" d="m1321.36,605.8c.95-2.16,2.09-3.67,4.41-1.35-.89,2.35-2.5,2.34-4.41,1.35Z"/>
    <path class="cls-2" d="m2271.72,220.38c1.74.98,4.22,1.32,3.66,4.26-2.23-.56-3.95-1.54-3.66-4.26Z"/>
    <path class="cls-2" d="m2054.06,126.3c-1.64-1.25-2.24-2.75-1.09-4.65,2.36,1.08,3.16,2.53,1.09,4.65Z"/>
    <path class="cls-2" d="m2062.97,534.97c-1.4-1.67-1.29-3.41-.26-5.2,2.84,1.59,2.78,3.33.26,5.2Z"/>
    <path class="cls-2" d="m1740.35,213.86c2.73.92,3.23,2.68,1.93,5.12-1.78-1.28-2.78-2.85-1.93-5.12Z"/>
    <path class="cls-2" d="m1120.4,125.81c2.84.94,2.94,2.83,1.8,5.16-1.67-1.35-2.48-2.99-1.8-5.16Z"/>
    <path class="cls-2" d="m1283.6,606.16c1.23-3.65,2.77-3.59,4.57-.38-1.46.89-2.98,1-4.57.38Z"/>
    <path class="cls-2" d="m963.29,602.97c2.32-.32,3.95.62,4.91,2.74-2.87,1.3-4.22-.12-4.91-2.74Z"/>
    <path class="cls-2" d="m143.27,212.67c-2.26-.6-3.84-1.74-3.52-4.4,1.36,1.31,4.44,1.26,3.52,4.4Z"/>
    <path class="cls-2" d="m2062.47,548.81c-.66-1.78-.95-3.53.49-5.12,2.48,1.96,2.74,3.71-.49,5.12Z"/>
    <path class="cls-2" d="m457.31,551.84c-.14-1.79.27-3.21,2.35-3.51,1.7,3.29,1.63,3.4-2.35,3.51Z"/>
    <path class="cls-2" d="m2307.46,210.59c-2.16-.65-3.5-1.99-3.6-4.35,2.5.37,4,1.57,3.6,4.35Z"/>
    <path class="cls-2" d="m289.24,31.93c.23,2.33-.33,4.19-2.89,4.86-.42-2.44.31-4.2,2.89-4.86Z"/>
    <path class="cls-2" d="m2194.35,129.89c2.43.66,2.11,3.11,3.08,4.72-2.81-.41-3.77-2.03-3.08-4.72Z"/>
    <path class="cls-2" d="m292.52,25.65c.5,2.27.39,4.26-2.36,5.01-.42-2.24-.03-4.09,2.36-5.01Z"/>
    <path class="cls-2" d="m2189.46,555.94c.51-2.58,2.26-3.35,4.65-3.21-.56,2.5-2.16,3.5-4.65,3.21Z"/>
    <path class="cls-2" d="m343.37,560.62c-2.38-.68-3.55-1.87-1.81-4.29,2,.84,2.83,2.17,1.81,4.29Z"/>
    <path class="cls-2" d="m1238.47,555.83c2.52.87,3.47,2.48,2.37,5.06-2.12-1.06-3.37-2.53-2.37-5.06Z"/>
    <path class="cls-2" d="m2053.17,209c-1-1.84-.53-3.38.98-4.7,2.12,2.08,1.32,3.54-.98,4.7Z"/>
    <path class="cls-2" d="m97.75,136.31c-1.06-1.21-2.33-2.33-1.79-4.21,2.91.42,3.52,1.82,1.79,4.21Z"/>
    <path class="cls-2" d="m1978.03,24c-2.34.24-3.78-.98-4.78-2.93,2.89-1.15,4.18.32,4.78,2.93Z"/>
    <path class="cls-2" d="m1367.68,564.34c-1.69-2.44-.75-3.7,1.89-4.18.57,1.94-.2,3.27-1.89,4.18Z"/>
    <path class="cls-2" d="m232.4,131.59c1.08,2.83-.41,3.97-2.92,4.45-.29-2.31-.06-4.29,2.92-4.45Z"/>
    <path class="cls-2" d="m1735.62,196.31c1.52,1.29,2.1,2.79,1.02,4.65-2.44-1.09-2.89-2.61-1.02-4.65Z"/>
    <path class="cls-2" d="m136.38,133.8c2.55.86,2.65,2.89,2.44,5.08-2.63-.82-2.74-2.85-2.44-5.08Z"/>
    <path class="cls-2" d="m1970.14,19.83c-1.85.57-3.05-.63-4.35-1.57,2.28-1.78,3.8-1.44,4.35,1.57Z"/>
    <path class="cls-2" d="m2189.28,568.74c-2.69-.84-3.09-2.67-2.19-5.07,2.22,1.05,2.18,3.07,2.19,5.07Z"/>
    <path class="cls-2" d="m1241.85,566.25c2.05.94,4.12,1.87,2.7,4.77-2.99-.41-3.66-2.13-2.7-4.77Z"/>
    <path class="cls-2" d="m765.22,602.35c1.58.39,2.84,1.14,3.22,2.87-2.76.94-5.17,1.47-3.22-2.87Z"/>
    <path class="cls-2" d="m275.08,189.85c.19,2.33-.3,4.24-2.97,4.79-.29-2.39.61-4.05,2.97-4.79Z"/>
    <path class="cls-2" d="m258.17,150.66c.15-2.1.63-4,2.88-4.86.6,2.54-.11,4.31-2.88,4.86Z"/>
    <path class="cls-2" d="m1413.87,572.23c1.88.93,4.13,1.58,3.39,4.48-2.18-.7-3.96-1.71-3.39-4.48Z"/>
    <path class="cls-2" d="m961.2,187.12c2.24-.06,4.1.49,4.74,2.98-2.5.47-4.25-.24-4.74-2.98Z"/>
    <path class="cls-2" d="m2198.62,186.4c-1.56.68-3.13,1.35-4.69,2.03-.79-1.83-1.13-3.78,1.05-4.71,2.31-.98,3.31.57,3.64,2.68Z"/>
    <path class="cls-2" d="m299.8,16.38c-.24,2.58-2.33,3.06-4.24,3.76-.03-2.88,1.37-4.14,4.24-3.76Z"/>
    <path class="cls-2" d="m341.75,578.35c-1.79-2.39-.54-3.51,1.75-4.19.96,2.04.39,3.45-1.75,4.19Z"/>
    <path class="cls-2" d="m947.64,574.44c1.81.98,4.32,1.52,2.83,4.55-1.42-1.22-3.31-2.15-2.83-4.55Z"/>
    <path class="cls-2" d="m2162.71,573.76c1.85,1.13,2.89,2.69,2.6,4.95-2.79-.64-3.82-2.2-2.6-4.95Z"/>
    <path class="cls-2" d="m1524.33,580.75c-.26-2.33.21-4.24,2.85-4.87.49,2.47-.33,4.17-2.85,4.87Z"/>
    <path class="cls-2" d="m2068.19,582.33c-1.51-.81-2.42-2.03-2.61-3.76,3.25-.4,4.09.88,2.61,3.76Z"/>
    <path class="cls-2" d="m1963.86,18.2c-2.79.43-3.73-1.39-4.36-3.58,3.26-1.01,3.19,2.04,4.36,3.58Z"/>
    <path class="cls-2" d="m107.26,18.61c-1.76-.15-3.08-.89-3.56-2.71q2.15-1.06,3.56,2.71Z"/>
    <path class="cls-2" d="m952.12,582.02c2.91.74,2.96,2.7,2.15,5.03-2.07-1.1-2.58-2.86-2.15-5.03Z"/>
    <path class="cls-2" d="m1251.92,582.18c2.53.4,3.65,1.91,3.51,4.43-2.47-.45-3.75-1.84-3.51-4.43Z"/>
    <path class="cls-2" d="m1519.83,586.4c-.26-2.61,1.18-3.87,3.51-4.42.48,2.79-1.62,3.52-3.51,4.42Z"/>
    <path class="cls-2" d="m1191.7,147.7c.26,1.1-.15,2.01-1.2,2.22-2.11.41-2.89-1.02-3.3-2.77,1.66-1.11,3.22-1.43,4.5.56Z"/>
    <path class="cls-2" d="m338.24,588.73c-.31-2.24.69-3.83,2.51-5,1.39,2.78.31,4.32-2.51,5Z"/>
    <path class="cls-2" d="m987.41,592.63c-2.9-.64-3.13-2.56-2.37-4.96,1.7,1.22,2.62,2.81,2.37,4.96Z"/>
    <path class="cls-2" d="m1373.76,184.26c2.69-2.12,3.28.13,4.08,1.96-2.01.69-2.93-.87-4.08-1.96Z"/>
    <path class="cls-2" d="m1435.32,594.96c2.4-.24,4.21.43,4.71,3.08-2.42.26-3.98-.77-4.71-3.08Z"/>
    <path class="cls-2" d="m87.81,182.22c1.43,1.27,3.03,2.42,3.33,4.52-2.33-.61-4.06-1.66-3.33-4.52Z"/>
    <path class="cls-2" d="m1733.87,180.29c2.07,1.14,2.04,2.74.99,4.56-2.29-1.1-3.34-2.46-.99-4.56Z"/>
    <path class="cls-2" d="m2297.49,148.68c2.05.62,4.08,1.24,3.75,4.05-2.39-.3-3.57-1.71-3.75-4.05Z"/>
    <path class="cls-2" d="m1944.46,9.03c-2.3.92-4.05.32-5.24-1.87,2.47-1.39,4.23-.83,5.24,1.87Z"/>
    <path class="cls-2" d="m462.44,604.87c-.49-2.88.9-4.1,3.64-4.14.36,2.76-1.18,3.85-3.64,4.14Z"/>
    <path class="cls-2" d="m1386.47,152.81c-2.41,1.08-3.96.06-5.04-2.09,2.43-1.12,4.11-.41,5.04,2.09Z"/>
    <path class="cls-2" d="m195.6,172.42c-2.79-.54-3.51-2.22-2.64-4.78,1.94,1.01,2.87,2.57,2.64,4.78Z"/>
    <path class="cls-2" d="m2065.73,604.28c-.03-1.87.94-3.11,2.53-3.94,1.57,2.86.48,4.02-2.53,3.94Z"/>
    <path class="cls-2" d="m725.35,164.81c3.03-.63,2.79,2.46,4.19,3.68-2.69.24-3.72-1.4-4.19-3.68Z"/>
    <path class="cls-2" d="m246.33,601.89c1.85.58,3.38,1.52,4.02,3.49-3.5,1.33-5.02.36-4.02-3.49Z"/>
    <path class="cls-2" d="m1412.89,509.8c1.43,3.18-1,3.76-3.08,4.58-.49-2.54,1.31-3.55,3.08-4.58Z"/>
    <path class="cls-2" d="m199.45,244.65c1.37.05,2.74.1,4.11.16.09,2.32-1.36,3.4-3.3,3.02-1.11-.22-1.2-1.92-.81-3.17Z"/>
    <path class="cls-2" d="m1734.01,144.54c.68,1.14.42,1.91-.89,2.27-1.43-1.44-1.15-2.2.89-2.27Z"/>
    <path class="cls-2" d="m719.74,38.3c-.7.63-1.41,1.26-2.11,1.89-.14-1.57.55-2.22,2.11-1.89Z"/>
    <path class="cls-2" d="m694.26,116.01c.31.88.63,1.76.94,2.65-1.52-.45-1.95-1.29-.94-2.65Z"/>
    <path class="cls-2" d="m769.85,84.44c-.77.55-1.53,1.1-2.3,1.66.06-1.53.61-2.37,2.3-1.66Z"/>
    <path class="cls-2" d="m1784.39,97.6c-1.14,6.46-3.88,12.11-8.43,16.87.37-6.84,3.81-12.15,8.43-16.87Z"/>
    <path class="cls-2" d="m1775.98,216.13c4.12,4.03,5.37,9.48,7.23,14.62-5.39-3.4-6.88-8.73-7.23-14.62Z"/>
    <path class="cls-2" d="m1999.36,86.63c-4.52-2.32-8-5.52-9.06-10.76,4.67,2.2,7.48,5.96,9.06,10.76Z"/>
    <path class="cls-2" d="m1793.89,246.21c4.49,2.3,8.48,5.04,9.34,10.55-4.35-2.42-7.67-5.75-9.34-10.55Z"/>
    <path class="cls-2" d="m1795.38,81.96c-1.33,4.3-2.29,8.86-7.37,10.53,1.32-4.3,2.7-8.57,7.37-10.53Z"/>
    <path class="cls-2" d="m2006.21,234.66c-.4-5.05,3.07-7.94,6.16-11.05.52,5.12-3,7.98-6.16,11.05Z"/>
    <path class="cls-2" d="m2007.35,98.65c-4.83-2.01-5.8-6.48-6.92-10.85,4.17,2.43,5.32,6.78,6.92,10.85Z"/>
    <path class="cls-2" d="m1770.48,201.86c3.62,2.93,5.42,6.48,3.76,11.18-1.77-3.55-4.74-6.7-3.76-11.18Z"/>
    <path class="cls-2" d="m1767.21,188.31c2.49,2.88,5.33,5.67,2.92,9.98-1.86-3.07-4.76-5.83-2.92-9.98Z"/>
    <path class="cls-2" d="m1851.79,287.78c3.62-1.63,5.49,1.52,8,2.93-3.82,2.18-6.16.3-8-2.93Z"/>
    <path class="cls-2" d="m2022.49,134.95c-2.67-2.3-5.33-4.59-3.03-8.63,2.51,2.35,4.38,4.93,3.03,8.63Z"/>
    <path class="cls-2" d="m2015.18,219.02c-1.31-4.07-.41-7.29,3.56-9.35.61,3.8-1.42,6.59-3.56,9.35Z"/>
    <path class="cls-2" d="m2019.41,206.3c-2.44-4.12.18-6.45,3.08-8.68,1.23,3.69-1.26,6.07-3.08,8.68Z"/>
    <path class="cls-2" d="m1920.22,37.7c-3.4.73-7.05,2.46-9.14-2.22,3.54-1.28,6.77-1.3,9.14,2.22Z"/>
    <path class="cls-2" d="m1825.46,274.69c3.88.23,7.11,1.44,8.31,5.63-3.39-.97-6.64-2.14-8.31-5.63Z"/>
    <path class="cls-2" d="m2018.86,122.86c-3.74-2.13-4.97-5.19-3.44-9.28,1.72,2.88,4.27,5.45,3.44,9.28Z"/>
    <path class="cls-2" d="m1770.06,132.3c2.14,3.7-.21,5.88-2.71,8.01-2.01-3.66.63-5.74,2.71-8.01Z"/>
    <path class="cls-2" d="m2012.66,108.91c-1.73-2.18-4.99-3.61-3.59-7.32,2.71,1.7,4.77,3.72,3.59,7.32Z"/>
    <path class="cls-2" d="m1841.08,283.63c3.66-1.48,5.47,1.07,7.39,3.38-3.68,1.53-5.43-1.14-7.39-3.38Z"/>
    <path class="cls-2" d="m2000.27,242.71c-.03-3.57,1.97-5.59,5.14-6.7,0,3.55-2.12,5.47-5.14,6.7Z"/>
    <path class="cls-2" d="m1967.48,273.93c1.14-3.16,3.04-5.31,6.74-5.07-1.4,2.82-3.26,5.03-6.74,5.07Z"/>
    <path class="cls-2" d="m1983.84,70.24c-3.67-.02-5.17-2.6-6.44-5.45,3.39.35,5.72,1.95,6.44,5.45Z"/>
    <path class="cls-2" d="m1774.15,117.59c.96,2.81,1.87,5.6-2.04,6.98-.45-2.66.17-5,2.04-6.98Z"/>
    <path class="cls-2" d="m1970.16,57.84c-2.54-.38-5.58.34-6.73-3.08,2.38.73,5.8-.82,6.73,3.08Z"/>
    <path class="cls-2" d="m1921.15,293.17c.94-2.85,2.68-3.48,5.23-1.9-1.21,2.09-2.85,3.01-5.23,1.9Z"/>
    <path class="cls-2" d="m1943.17,287.19c.83-2.32,2.98-2.21,4.85-2.62-.56,2.82-2.22,3.62-4.85,2.62Z"/>
    <path class="cls-2" d="m1961.4,277.77c.56-2.7,2.43-3.23,4.81-2.93-.39,2.97-2.97,2.35-4.81,2.93Z"/>
    <path class="cls-2" d="m1935.48,289.93c.56-2.45,1.62-3.9,4.28-2.14-.88,1.81-2.18,2.77-4.28,2.14Z"/>
    <path class="cls-2" d="m1819.39,270.79c2.25-.03,4.09.59,4.76,3.04-2.55.5-4.29-.27-4.76-3.04Z"/>
    <path class="cls-2" d="m1975.47,267.93c.45-2.63,2.36-3.2,4.62-3.27-.48,2.58-2.2,3.42-4.62,3.27Z"/>
    <path class="cls-2" d="m1807.53,260.59c2.47.02,4.04,1.09,4.28,3.69-2.35-.16-3.98-1.15-4.28-3.69Z"/>
    <path class="cls-2" d="m1817.99,60.54c-.38,2.6-2.05,3.52-4.49,3.44.6-2.32,2.04-3.54,4.49-3.44Z"/>
    <path class="cls-2" d="m1823.95,56.49c-.62,2.37-1.85,3.88-4.59,3.26.74-2.2,2.1-3.53,4.59-3.26Z"/>
    <path class="cls-2" d="m1996.14,248.62c.13-2.2.72-4.08,3.2-4.66.33,2.51-.58,4.18-3.2,4.66Z"/>
    <path class="cls-2" d="m1830.02,52.59c-.53,2.59-2.11,3.61-4.68,3.13.41-2.77,2.86-2.48,4.68-3.13Z"/>
    <path class="cls-2" d="m1786.44,235.84c2.58.66,3.19,2.49,2.86,4.86-2.5-.71-3.13-2.52-2.86-4.86Z"/>
    <path class="cls-2" d="m1841.77,46.28c-.59,2.23-2.21,3.22-4.34,3.58.57-2.25,1.51-4.07,4.34-3.58Z"/>
    <path class="cls-2" d="m1941.72,44.36c-2,.46-3.01-.82-3.94-2.24,3.16-2.5,2.86,1.08,3.94,2.24Z"/>
    <path class="cls-2" d="m1934.33,41.49c-2.65,1.03-4.05-.32-4.96-2.6,2.6-.94,4.02.37,4.96,2.6Z"/>
    <path class="cls-2" d="m1877.79,36.09c-.89,2.54-2.55,2.55-4.56,1.37.92-2.47,2.32-3.31,4.56-1.37Z"/>
    <path class="cls-2" d="m2024.11,186.58c-1.03-1.91-.58-3.34,1.4-4.27,1.96,2.22,1.32,3.59-1.4,4.27Z"/>
    <path class="cls-2" d="m305.76,518.37c-.58-2.65,1.28-3.61,3.15-4.56,1.42,3.23-1.46,3.49-3.15,4.56Z"/>
    <path class="cls-2" d="m312.46,558.32c-1.74-.96-2.49-2.43-2.24-4.4,2.72.46,3.93,1.7,2.24,4.4Z"/>
    <path class="cls-2" d="m310.13,572.65c-.11-1.96.74-3.37,2.42-4.32,1.67,2.83.26,3.93-2.42,4.32Z"/>
    <path class="cls-2" d="m1275.28,515.94c-6.96,13.05-6.41,26.86-4.1,40.85-4.81-3.22-4.46-8.86-4.73-13.25-.62-10.06-.5-20.47,8.83-27.59Z"/>
    <path class="cls-2" d="m1337.93,554.48c.08-4.25,1.81-7.77,4.74-10.77,1.53,4.96-.64,8.28-4.74,10.77Z"/>
    <path class="cls-2" d="m1342.64,534.94c-3.15-3.16-5.4-6.59-3.5-11.31,2.01,3.51,4.85,6.76,3.5,11.31Z"/>
    <path class="cls-2" d="m1325.68,508.41c-3.38-1.95-8.22-1.29-10.24-5.69,4.51-.08,8.46.85,10.24,5.69Z"/>
    <path class="cls-2" d="m1298.31,501.28c-3.1,3.07-6.49,5.35-11.17,4.11,3.23-2.72,6.47-5.38,11.17-4.11Z"/>
    <path class="cls-2" d="m1275.91,564.2c4.28,1.12,6.1,4.6,7.83,8.16-4.29-1.11-6.85-3.88-7.83-8.16Z"/>
    <path class="cls-2" d="m1287.03,573.68c3.95-.74,7.19.16,9.22,3.93-4.44,1.9-6.41-2-9.22-3.93Z"/>
    <path class="cls-2" d="m1317.21,575.42c1.61-2.41,3.91-3.24,6.71-2.9-1.43,2.82-3.51,4.17-6.71,2.9Z"/>
    <path class="cls-2" d="m2165.32,535.61c1.9-3.59,5.34-4.3,8.92-4.73-2.39,2.68-4.32,6.22-8.92,4.73Z"/>
    <path class="cls-2" d="m2176.16,528.64c.15-3.23-.39-6.76,3.55-8.39.92,3.69,0,6.6-3.55,8.39Z"/>
    <path class="cls-2" d="m2173.84,504.28c-2.55.49-3.49-1.41-4.58-3.1,3.21-1.45,3.73,1.06,4.58,3.1Z"/>
    <path class="cls-2" d="m2135.76,534.36c1.04.12,1.89.52,2.27,1.59-1.65.74-2.38.18-2.27-1.59Z"/>
    <path class="cls-2" d="m1846.2,82.84c.44-.28.87-.58,1.27-.91,5.79-.6,10.66-3.01,14.52-7.4,1.74-.4,3.48-.8,5.21-1.2,3.05,1.05,5.07-.3,6.58-2.84,5.18-.3,10.35-.6,15.53-.9,4.33,1.17,8.66,1.02,12.97-.1,5.16.27,10.33.53,15.49.8.76,1.63,1.89,2.61,3.82,2.19,2.06.42,4.11.84,6.17,1.26,7.94,6.27,17.2,10.09,26.31,14.19,6.06,6,12.12,12,18.18,18-.3,2.96,1.65,4.67,3.57,6.38.43,2.73,3.06,3.68,4.5,5.6-.49,4.5,1.99,7.76,4.61,10.95.18.54.45,1.04.8,1.49.5,3.54,1,7.09,1.51,10.63.3,2.07,1.02,3.8,3.49,3.99.38,4.44.77,8.88,1.15,13.32-.01,7.34-2.1,14.63-.53,22.01-.19,2.46-.38,4.92-.58,7.38-3.46,3.07-4.97,6.72-3.38,11.3-1.27,2.44-2.55,4.88-3.82,7.33-3.54,3.03-4.5,7.46-6.21,11.48-2.02,2.71-4.05,5.41-6.07,8.12-5.04,2.95-8.42,7.51-11.79,12.08-1.15.89-2.29,1.78-3.44,2.67-1.51,1.13-4.25.86-4.21,3.73-1.18.9-2.36,1.81-3.55,2.71-2.26-.2-4.19.17-4.91,2.73-.48.22-.96.46-1.42.72-2.48.52-5.6-.34-6.67,3.15-1.61,1.35-3.48,2.07-5.55,2.35-3.09-1.5-4.57.54-5.98,2.72-2.48.2-4.95.39-7.43.59-3.6-1.64-6.21.09-8.59,2.55-9.84.96-19.6,1.72-29.24-1.89-3.28-1.23-7.15-.89-10.76-1.26-1.35-2.44-2.91-4.35-6-2.34-11.82-3.01-20.86-10.66-30.08-18.03-.69-.65-1.37-1.29-2.06-1.94v-.03c.24-2.73-1.46-3.74-3.74-4.24-2.82-3.2-5.64-6.4-8.46-9.6.25-2.34-.41-4.14-2.9-4.83-.34-.41-.68-.82-1.01-1.24-.19-3.68-2.19-6.4-4.73-8.83-.5-1.01-.99-2.01-1.49-3.02.77-3.13-1.5-4.72-3.3-6.55-2.7-4.28-.93-9.75-3.71-14.01,2.62-4.94.78-9.37-1.58-13.74.14-6.03.27-12.06.41-18.09,4.57-5.96,4.8-12.94,4.69-20,.03-.63.06-1.25.12-1.87,1.59-1.14,4.12-1.51,3.53-4.4,3.57-9.8,10.14-17.6,16.92-25.25,3.09-.86,4.81-3.07,5.83-5.95l3.4-2.72c3.43-.36,5.29-2.53,6.39-5.57.43-.33.84-.69,1.23-1.07,2.08-.08,4.22-.04,4.98-2.63Zm3.2,37.19c-2.7.42-3.42,2.2-3.18,4.63-.95,1.1-1.9,2.2-2.85,3.3-4.8,2.94-7.21,7.15-6.85,12.84-4.45,11.3-4.75,22.9-3.9,34.93.48,6.8,5.18,11.94,5.14,18.57.54,4.79,3.28,8.09,7.2,10.57.32.45.58.93.79,1.44,2.28,5.74,6.73,9.28,12.06,11.94,3.75,1.81,7.49,3.62,11.24,5.44,2.7,2.2,5.44,4.28,9.24,3.8,1.16.15,2.32.29,3.48.44,14.26,5.61,27.75,3.35,40.73-4,1.1-.53,2.2-1.06,3.29-1.59,6.35-1,10.94-4.42,13.85-10.13v-.02c2.87-1.18,5.89-2.21,5.76-6.18.93-1.11,1.87-2.22,2.8-3.34,2.83-1.49,5.66-2.97,4.36-7.03.59-.96,1.19-1.92,1.78-2.89,3.9-2.05,3.37-5.47,2.76-8.91,1.07-2.02,2.41-3.91,2.43-6.37.05-8.87.94-17.76-.73-26.58.73-3.45-.64-6.82-1.98-9.52-3.84-7.74-6.3-16.75-15.39-20.65-1.9-2.87-4.8-4.64-7.39-6.75-.29-2.84-2.07-3.58-4.6-3.28-3.63-2.12-7.43-3.79-11.6-4.48-1.84-3.59-4.13-6.3-8.74-4.57-9.11-.77-18.23-.63-27.33.11-7,.72-13.5,2.56-18.31,8.18-.45.27-.88.57-1.29.89-2.44-.25-4.21.48-4.68,3.15-.39.36-.81.69-1.24.99-3.67-.28-5.8,1.54-6.76,4.95l-.09.1Z"/>
    <path class="cls-2" d="m1954.08,87.92c-9.11-4.1-18.37-7.92-26.31-14.19,10.08,2.31,19.15,6.47,26.31,14.19Z"/>
    <path class="cls-2" d="m1991.36,180.3c-1.57-7.38.52-14.67.53-22.01,5.88,7.48,3.03,14.75-.53,22.01Z"/>
    <path class="cls-2" d="m1803.8,132.3c.11,7.06-.12,14.04-4.69,20-.15-7.07.74-13.89,4.69-20Z"/>
    <path class="cls-2" d="m1959.52,237.99c3.37-4.57,6.75-9.14,11.79-12.08-1.7,6.2-5.35,10.5-11.79,12.08Z"/>
    <path class="cls-2" d="m1990.74,144.97c-2.46-.19-3.19-1.92-3.49-3.99-.51-3.54-1.01-7.09-1.51-10.63,3.37,3.74,4.89,8.18,5,14.62Z"/>
    <path class="cls-2" d="m1798.7,170.38c2.37,4.37,4.21,8.79,1.58,13.74-2.33-4.37-3.98-8.82-1.58-13.74Z"/>
    <path class="cls-2" d="m1861.99,74.53c-3.86,4.39-8.73,6.8-14.52,7.4,3.4-5.28,9.23-5.82,14.52-7.4Z"/>
    <path class="cls-2" d="m1977.37,217.79c1.71-4.02,2.67-8.45,6.21-11.48-.05,5.65-1.52,8.35-6.21,11.48Z"/>
    <path class="cls-2" d="m1902.29,69.49c-4.32,1.12-8.64,1.27-12.97.1,4.29-3.93,8.62-4.27,12.97-.1Z"/>
    <path class="cls-2" d="m1984.94,128.85c-2.62-3.19-5.09-6.45-4.61-10.95,3.65,2.76,5.87,6.12,4.61,10.95Z"/>
    <path class="cls-2" d="m1987.41,198.98c-1.6-4.58-.09-8.23,3.38-11.3,1.44,4.53-1.8,7.67-3.38,11.3Z"/>
    <path class="cls-2" d="m1808.79,207.7c2.55,2.42,4.54,5.14,4.73,8.83-3.75-1.78-5.59-4.58-4.73-8.83Z"/>
    <path class="cls-2" d="m1907.77,261.92c2.39-2.46,4.99-4.18,8.59-2.55-2.46,2.2-4.8,4.83-8.59,2.55Z"/>
    <path class="cls-2" d="m1830.2,94.83c-1.02,2.88-2.75,5.09-5.83,5.95.15-3.74,1.93-5.89,5.83-5.95Z"/>
    <path class="cls-2" d="m1839.99,86.54c-1.1,3.03-2.95,5.21-6.39,5.57.93-3.23,2.9-5.27,6.39-5.57Z"/>
    <path class="cls-2" d="m1975.84,112.3c-1.92-1.72-3.87-3.42-3.57-6.38,2.77,1.24,5.54,2.49,3.57,6.38Z"/>
    <path class="cls-2" d="m1873.79,70.49c-1.51,2.53-3.53,3.89-6.58,2.84,1.68-2.14,2.94-5.26,6.58-2.84Z"/>
    <path class="cls-2" d="m1861.78,256.42c3.09-2.01,4.65-.09,6,2.34-3.09,2.01-4.18-1.11-6-2.34Z"/>
    <path class="cls-2" d="m1923.79,258.79c1.41-2.18,2.9-4.22,5.98-2.72-1.51,1.97-2.65,4.75-5.98,2.72Z"/>
    <path class="cls-2" d="m1804,198.13c1.8,1.83,4.08,3.42,3.3,6.55-3.02-1.22-4.82-3.05-3.3-6.55Z"/>
    <path class="cls-2" d="m1935.32,253.71c1.07-3.49,4.2-2.63,6.67-3.15-.98,3.69-3.9,3.27-6.67,3.15Z"/>
    <path class="cls-2" d="m1846.2,82.84c-.76,2.58-2.9,2.54-4.98,2.63.71-2.68,2.57-3.17,4.98-2.63Z"/>
    <path class="cls-2" d="m1921.61,72.48c-1.94.42-3.07-.56-3.82-2.19,3.11-2.47,2.82.98,3.82,2.19Z"/>
    <path class="cls-2" d="m1943.42,249.84c.72-2.56,2.65-2.94,4.91-2.73-.54,2.88-2.93,2.44-4.91,2.73Z"/>
    <path class="cls-2" d="m1951.87,244.39c-.04-2.87,2.7-2.6,4.21-3.73-.28,2.51-1.89,3.52-4.21,3.73Z"/>
    <path class="cls-2" d="m1825.9,232.19c2.28.5,3.98,1.51,3.73,4.24-2.16-.61-3.81-1.66-3.73-4.24Z"/>
    <path class="cls-2" d="m1814.53,217.76c2.5.69,3.15,2.48,2.9,4.83-2.77-.53-3.07-2.54-2.9-4.83Z"/>
    <path class="cls-2" d="m1807.45,126.03c.59,2.89-1.94,3.26-3.53,4.4-.48-2.79,1.12-3.92,3.53-4.4Z"/>
    <path class="cls-2" d="m1829.64,236.45c.69.65,1.37,1.29,2.06,1.94-1.53.24-2.19-.43-2.06-1.94Z"/>
    <path class="cls-2" d="m1881.79,227.93c3.73-2.27,7.74-.67,11.62-.82,8.23-.33,16.64.76,24.34-3.5,1.44-.8,3.23-.58,4.77.33-12.99,7.35-26.47,9.6-40.73,4Z"/>
    <path class="cls-2" d="m1958.81,150.89c-1.45-.26-2.54-1.21-2.8-2.5-2.2-10.63-8.25-19.22-14.56-27.67,9.09,3.9,11.55,12.91,15.39,20.65,1.34,2.7,2.71,6.07,1.98,9.52Z"/>
    <path class="cls-2" d="m1881.78,101.75c-5.15,4.87-11.79,6.39-18.31,8.18,4.81-5.62,11.31-7.46,18.31-8.18Z"/>
    <path class="cls-2" d="m1845.77,206.32c5.17,2.82,9.63,6.35,12.06,11.94-5.33-2.65-9.79-6.19-12.06-11.94Z"/>
    <path class="cls-2" d="m1925.81,222.34c4.05-4.15,8.24-8.12,13.85-10.13-2.91,5.71-7.5,9.13-13.85,10.13Z"/>
    <path class="cls-2" d="m1843.38,127.96c-1.33,4.79-2.78,9.51-6.85,12.84-.36-5.69,2.05-9.9,6.85-12.84Z"/>
    <path class="cls-2" d="m1837.78,194.31c3.67,2.66,6.96,5.58,7.2,10.57-3.93-2.49-6.66-5.78-7.2-10.57Z"/>
    <path class="cls-2" d="m1869.07,223.69c4.26-1.59,7.12.21,9.24,3.8-3.8.48-6.54-1.6-9.24-3.8Z"/>
    <path class="cls-2" d="m1917.85,106.22c-3.6-.2-6.12-2.49-8.74-4.57,4.61-1.72,6.91.99,8.74,4.57Z"/>
    <path class="cls-2" d="m1954.36,192.76c.43-3.12-.87-6.78,2.76-8.91.61,3.44,1.14,6.86-2.76,8.91Z"/>
    <path class="cls-2" d="m1856.25,114.97c-.86,3.55-4.24,3.67-6.76,4.95.96-3.41,3.09-5.23,6.76-4.95Z"/>
    <path class="cls-2" d="m1939.67,212.19c.46-3.42,2.57-5.3,5.75-6.18.14,3.97-2.88,5-5.75,6.18Z"/>
    <path class="cls-2" d="m1948.22,202.67c-.03-3.26,2.13-5.17,4.36-7.02,1.3,4.05-1.53,5.54-4.36,7.02Z"/>
    <path class="cls-2" d="m1862.18,110.83c-.57,2.52-2.5,3.03-4.68,3.15.47-2.67,2.25-3.4,4.68-3.15Z"/>
    <path class="cls-2" d="m1934.06,113.98c-1.77-.76-4.19-.61-4.6-3.28,2.53-.31,4.31.44,4.6,3.28Z"/>
    <path class="cls-2" d="m1849.41,120.03c-.82,1.71-.23,4.38-3.18,4.63-.24-2.44.47-4.22,3.18-4.63Z"/>
  </g>
  <path class="cls-1" d="m1637.66,288.39c-1.78-3.94-4.97-4.47-8.97-4.41-15.98.21-31.97.14-47.95.08-10.13-.04-10.53-.41-10.53-10.85-.03-71.93-.03-143.85,0-215.78,0-8.69.12-8.71,8.98-8.78,6.33-.05,12.66-.1,18.98.01,7.45.14,7.52.29,7.72,8.06.04,1.66,0,3.33,0,4.99,0,57.61,0,115.22,0,172.82,0,2.66-.02,5.33.11,7.99.1,2.2,1.17,4.2,3.45,4.18,8.58-.08,17.22,1.14,25.73-.75.87-.19,1.57-1.19,2.34-1.81,4.02,14.74,4.18,29.49.14,44.25Z"/>
</svg>